ply
format ascii 1.0
element vertex 3158
property float x
property float y
property float z
property uchar red
property uchar green
property uchar blue
end_header
10.900 -0.700 -0.300 5 0 249
10.900 -0.700 -0.100 0 0 254
10.900 -0.700 0.700 165 0 89
10.900 -0.700 0.900 159 0 95
10.900 -0.700 1.100 28 0 226
10.900 -0.700 1.300 45 0 209
10.900 -0.700 1.500 51 0 203
10.900 -0.700 1.700 74 0 180
10.900 -0.500 -0.300 174 0 80
10.900 -0.500 -0.100 165 0 89
10.900 -0.500 0.100 163 0 91
10.900 -0.500 0.300 172 0 82
10.900 -0.500 0.500 183 0 71
10.900 -0.500 0.700 192 0 62
10.900 -0.500 0.900 188 0 66
10.900 -0.500 1.100 195 0 59
10.900 -0.500 1.700 242 0 12
10.900 -0.300 -0.300 173 0 81
10.900 -0.100 -0.300 192 0 62
10.900 0.100 -0.300 201 0 53
10.900 0.300 -0.300 206 0 48
10.900 0.500 -0.300 207 0 47
10.900 0.700 -0.300 197 0 57
10.900 0.900 -0.300 172 0 82
10.900 1.100 -0.300 167 0 87
10.900 1.300 -0.300 165 0 89
10.900 1.500 -0.300 0 0 255
10.900 1.500 -0.100 0 0 255
10.900 1.500 0.100 0 0 255
10.900 1.500 0.300 0 0 255
10.900 1.500 0.500 0 0 255
10.900 1.500 0.700 0 0 255
10.900 1.700 -0.300 0 0 255
10.900 1.700 -0.100 0 0 255
10.900 1.700 0.700 0 0 255
10.900 1.700 0.900 0 0 255
10.900 1.700 1.100 0 0 255
10.900 1.700 1.300 0 0 255
10.900 1.700 1.500 0 0 255
10.900 1.700 1.700 0 0 255
11.100 -0.700 -0.300 4 0 250
11.100 -0.700 -0.100 2 0 252
11.100 -0.700 0.700 158 0 96
11.100 -0.700 0.900 156 0 98
11.100 -0.700 1.100 34 0 220
11.100 -0.700 1.300 52 0 202
11.100 -0.700 1.700 46 0 208
11.100 -0.500 -0.300 174 0 80
11.100 -0.500 -0.100 162 0 92
11.100 -0.500 0.100 161 0 93
11.100 -0.500 0.300 166 0 88
11.100 -0.500 0.500 182 0 72
11.100 -0.500 0.700 190 0 64
11.100 -0.500 0.900 188 0 66
11.100 -0.500 1.700 156 0 98
11.100 -0.300 -0.300 179 0 75
11.100 -0.100 -0.300 189 0 65
11.100 0.100 -0.300 196 0 58
11.100 0.300 -0.300 197 0 57
11.100 0.500 -0.300 198 0 56
11.100 0.700 -0.300 187 0 67
11.100 0.900 -0.300 173 0 81
11.100 1.100 -0.300 161 0 93
11.100 1.300 -0.300 163 0 91
11.100 1.500 -0.300 0 0 255
11.100 1.500 -0.100 0 0 255
11.100 1.500 0.100 0 0 255
11.100 1.500 0.300 0 0 255
11.100 1.500 0.500 0 0 255
11.100 1.500 0.700 0 0 255
11.100 1.700 -0.300 0 0 255
11.100 1.700 -0.100 0 0 255
11.100 1.700 0.700 0 0 255
11.100 1.700 0.900 0 0 255
11.100 1.700 1.100 0 0 255
11.100 1.700 1.300 0 0 255
11.100 1.700 1.500 0 0 255
11.100 1.700 1.700 0 0 255
11.300 -0.700 -0.300 0 0 255
11.300 -0.700 -0.100 0 0 254
11.300 -0.700 0.700 157 0 97
11.300 -0.700 0.900 13 0 241
11.300 -0.700 1.100 160 0 94
11.300 -0.700 1.300 42 0 212
11.300 -0.700 1.500 86 0 168
11.300 -0.700 1.700 53 0 201
11.300 -0.500 -0.300 172 0 82
11.300 -0.500 -0.100 168 0 86
11.300 -0.500 0.100 174 0 80
11.300 -0.500 0.300 193 0 61
11.300 -0.500 0.500 202 0 52
11.300 -0.500 0.700 188 0 66
11.300 -0.500 0.900 190 0 64
11.300 -0.500 1.700 202 0 52
11.300 -0.300 -0.300 173 0 81
11.300 -0.100 -0.300 187 0 67
11.300 0.100 -0.300 197 0 57
11.300 0.300 -0.300 201 0 53
11.300 0.500 -0.300 203 0 51
11.300 0.700 -0.300 197 0 57
11.300 0.900 -0.300 174 0 80
11.300 1.100 -0.300 166 0 88
11.300 1.300 -0.300 163 0 91
11.300 1.500 -0.300 0 0 255
11.300 1.500 -0.100 0 0 255
11.300 1.500 0.300 0 0 255
11.300 1.500 0.500 0 0 255
11.300 1.500 0.700 130 0 124
11.300 1.700 -0.300 0 0 255
11.300 1.700 -0.100 0 0 255
11.300 1.700 0.100 0 0 255
11.300 1.700 0.300 0 0 255
11.300 1.700 0.500 0 0 255
11.300 1.700 0.700 0 0 255
11.300 1.700 0.900 0 0 255
11.300 1.700 1.100 0 0 255
11.300 1.700 1.300 0 0 255
11.300 1.700 1.500 0 0 255
11.300 1.700 1.700 0 0 255
11.300 1.700 1.900 0 0 255
11.500 -0.900 1.300 38 0 216
11.500 -0.900 1.500 180 0 74
11.500 -0.900 1.700 191 0 63
11.500 -0.700 0.900 165 0 89
11.500 -0.700 1.100 165 0 89
11.500 -0.700 1.300 43 0 211
11.500 -0.700 1.500 52 0 202
11.500 -0.700 1.700 57 0 197
11.500 -0.500 -0.300 173 0 81
11.500 -0.500 -0.100 167 0 87
11.500 -0.500 0.100 162 0 92
11.500 -0.500 0.300 190 0 64
11.500 -0.500 0.500 189 0 65
11.500 -0.500 0.700 191 0 63
11.500 -0.500 0.900 189 0 65
11.500 -0.500 1.100 192 0 62
11.500 -0.500 1.300 196 0 58
11.500 -0.500 1.500 204 0 50
11.500 -0.500 1.700 197 0 57
11.500 -0.300 -0.300 174 0 80
11.500 -0.100 -0.300 189 0 65
11.500 0.100 -0.300 193 0 61
11.500 0.300 -0.300 202 0 52
11.500 0.500 -0.300 206 0 48
11.500 0.700 -0.300 199 0 55
11.500 0.900 -0.300 181 0 73
11.500 1.100 -0.300 166 0 88
11.500 1.300 -0.300 166 0 88
11.500 1.500 -0.300 0 0 255
11.500 1.700 -0.300 0 0 255
11.500 1.700 -0.100 0 0 255
11.500 1.700 0.100 0 0 255
11.500 1.700 0.300 0 0 255
11.500 1.700 0.500 0 0 255
11.500 1.700 0.700 0 0 255
11.500 1.700 0.900 0 0 255
11.500 1.700 1.100 0 0 255
11.500 1.700 1.300 0 0 255
11.500 1.700 1.500 0 0 255
11.500 1.700 1.700 0 0 255
11.500 1.700 1.900 0 0 255
11.700 -0.900 1.300 22 0 232
11.700 -0.900 1.500 0 0 255
11.700 -0.500 -0.300 169 0 85
11.700 -0.500 -0.100 166 0 88
11.700 -0.500 0.100 166 0 88
11.700 -0.500 0.300 184 0 70
11.700 -0.500 0.500 194 0 60
11.700 -0.500 0.700 193 0 61
11.700 -0.500 0.900 192 0 62
11.700 -0.500 1.100 191 0 63
11.700 -0.500 1.300 194 0 60
11.700 -0.500 1.500 187 0 67
11.700 -0.500 1.700 179 0 75
11.700 -0.500 1.900 194 0 60
11.700 -0.300 -0.300 177 0 77
11.700 -0.100 -0.300 189 0 65
11.700 0.100 -0.300 201 0 53
11.700 0.300 -0.300 207 0 47
11.700 0.500 -0.300 208 0 46
11.700 0.700 -0.300 200 0 54
11.700 0.900 -0.300 182 0 72
11.700 1.100 -0.300 171 0 83
11.700 1.100 1.900 166 0 88
11.700 1.300 -0.300 166 0 88
11.700 1.300 1.900 167 0 87
11.700 1.500 -0.300 0 0 255
11.700 1.500 1.900 0 0 255
11.700 1.700 -0.300 0 0 255
11.700 1.700 -0.100 0 0 255
11.700 1.700 0.100 0 0 255
11.700 1.700 0.300 0 0 255
11.700 1.700 0.500 0 0 255
11.700 1.700 0.700 0 0 255
11.700 1.700 0.900 0 0 255
11.700 1.700 1.100 0 0 255
11.700 1.700 1.300 0 0 255
11.700 1.700 1.500 0 0 255
11.700 1.700 1.700 0 0 255
11.700 1.700 1.900 0 0 255
11.900 -0.500 -0.300 172 0 82
11.900 -0.500 -0.100 167 0 87
11.900 -0.500 0.100 168 0 86
11.900 -0.500 0.300 182 0 72
11.900 -0.500 0.500 191 0 63
11.900 -0.500 0.700 191 0 63
11.900 -0.500 0.900 191 0 63
11.900 -0.500 1.100 184 0 70
11.900 -0.500 1.300 186 0 68
11.900 -0.500 1.500 178 0 76
11.900 -0.500 1.700 180 0 74
11.900 -0.500 1.900 154 0 100
11.900 -0.300 -0.300 174 0 80
11.900 -0.300 1.900 159 0 95
11.900 -0.100 -0.300 192 0 62
11.900 -0.100 1.900 166 0 88
11.900 0.100 -0.300 199 0 55
11.900 0.100 1.900 171 0 83
11.900 0.300 -0.300 198 0 56
11.900 0.300 1.900 172 0 82
11.900 0.500 -0.300 203 0 51
11.900 0.500 1.900 174 0 80
11.900 0.700 -0.300 201 0 53
11.900 0.700 1.900 169 0 85
11.900 0.900 -0.300 184 0 70
11.900 0.900 1.900 162 0 92
11.900 1.100 -0.300 172 0 82
11.900 1.100 1.900 155 0 99
11.900 1.300 -0.300 169 0 85
11.900 1.300 1.900 159 0 95
11.900 1.500 -0.300 0 0 255
11.900 1.500 1.900 0 0 255
11.900 1.700 -0.300 0 0 255
11.900 1.700 -0.100 0 0 255
11.900 1.700 0.100 0 0 255
11.900 1.700 0.300 0 0 255
11.900 1.700 0.500 0 0 255
11.900 1.700 0.700 0 0 255
11.900 1.700 0.900 0 0 255
11.900 1.700 1.100 0 0 255
11.900 1.700 1.300 0 0 255
11.900 1.700 1.500 0 0 255
11.900 1.700 1.700 0 0 255
11.900 1.700 1.900 0 0 255
12.100 -0.500 -0.300 170 0 84
12.100 -0.500 -0.100 162 0 92
12.100 -0.500 0.100 165 0 89
12.100 -0.500 0.500 190 0 64
12.100 -0.500 0.700 196 0 58
12.100 -0.500 0.900 183 0 71
12.100 -0.500 1.700 158 0 96
12.100 -0.500 1.900 154 0 100
12.100 -0.300 -0.300 175 0 79
12.100 -0.300 1.900 160 0 94
12.100 -0.100 -0.300 188 0 66
12.100 -0.100 1.900 167 0 87
12.100 0.100 -0.300 199 0 55
12.100 0.100 1.900 170 0 84
12.100 0.300 -0.300 201 0 53
12.100 0.300 1.900 174 0 80
12.100 0.500 -0.300 205 0 49
12.100 0.500 1.900 175 0 79
12.100 0.700 -0.300 199 0 55
12.100 0.700 1.900 169 0 85
12.100 0.900 -0.300 181 0 73
12.100 0.900 1.900 166 0 88
12.100 1.100 -0.300 168 0 86
12.100 1.100 1.900 160 0 94
12.100 1.300 -0.300 166 0 88
12.100 1.300 1.900 171 0 83
12.100 1.500 -0.300 157 0 97
12.100 1.500 1.900 162 0 92
12.100 1.700 -0.300 159 0 95
12.100 1.700 -0.100 151 0 103
12.100 1.700 0.100 152 0 102
12.100 1.700 0.300 160 0 94
12.100 1.700 0.700 188 0 66
12.100 1.700 1.900 197 0 57
12.300 -0.700 -0.300 0 0 255
12.300 -0.500 -0.300 164 0 90
12.300 -0.500 1.900 153 0 101
12.300 -0.300 -0.300 171 0 83
12.300 -0.300 1.900 160 0 94
12.300 -0.100 -0.300 182 0 72
12.300 -0.100 1.900 164 0 90
12.300 0.100 -0.300 192 0 62
12.300 0.100 1.900 164 0 90
12.300 0.300 -0.300 191 0 63
12.300 0.300 1.900 167 0 87
12.300 0.500 -0.300 201 0 53
12.300 0.500 1.900 168 0 86
12.300 0.700 -0.300 196 0 58
12.300 0.700 1.900 166 0 88
12.300 0.900 -0.300 190 0 64
12.300 0.900 1.900 164 0 90
12.300 1.100 -0.300 171 0 83
12.300 1.100 1.900 164 0 90
12.300 1.300 -0.300 165 0 89
12.300 1.300 1.900 162 0 92
12.300 1.500 -0.300 160 0 94
12.300 1.500 1.900 165 0 89
12.300 1.700 -0.300 158 0 96
12.300 1.700 1.900 193 0 61
12.500 -0.700 -0.300 0 0 255
12.500 -0.700 -0.100 0 0 255
12.500 -0.500 -0.300 170 0 84
12.500 -0.500 1.900 145 0 109
12.500 -0.300 -0.300 175 0 79
12.500 -0.300 1.900 154 0 100
12.500 -0.100 -0.300 188 0 66
12.500 -0.100 1.900 160 0 94
12.500 0.100 -0.300 194 0 60
12.500 0.100 1.900 161 0 93
12.500 0.300 -0.300 192 0 62
12.500 0.300 1.900 162 0 92
12.500 0.500 -0.300 197 0 57
12.500 0.500 1.900 164 0 90
12.500 0.700 -0.300 198 0 56
12.500 0.700 1.900 166 0 88
12.500 0.900 -0.300 188 0 66
12.500 0.900 1.900 163 0 91
12.500 1.100 -0.300 173 0 81
12.500 1.100 1.900 165 0 89
12.500 1.300 -0.300 168 0 86
12.500 1.300 1.900 162 0 92
12.500 1.500 -0.300 163 0 91
12.500 1.500 1.900 165 0 89
12.500 1.700 -0.300 159 0 95
12.500 1.700 1.900 191 0 63
12.700 -0.700 -0.300 0 0 255
12.700 -0.500 -0.300 171 0 83
12.700 -0.500 1.900 151 0 103
12.700 -0.300 -0.300 174 0 80
12.700 -0.300 1.900 159 0 95
12.700 -0.100 -0.300 184 0 70
12.700 -0.100 1.900 163 0 91
12.700 0.100 -0.300 193 0 61
12.700 0.100 1.900 164 0 90
12.700 0.300 -0.300 196 0 58
12.700 0.300 1.900 167 0 87
12.700 0.500 -0.300 204 0 50
12.700 0.500 1.900 169 0 85
12.700 0.700 -0.300 203 0 51
12.700 0.700 1.900 169 0 85
12.700 0.900 -0.300 189 0 65
12.700 0.900 1.900 164 0 90
12.700 1.100 -0.300 174 0 80
12.700 1.100 1.900 161 0 93
12.700 1.300 -0.300 169 0 85
12.700 1.300 1.900 166 0 88
12.700 1.500 -0.300 164 0 90
12.700 1.500 1.900 158 0 96
12.700 1.700 -0.300 160 0 94
12.700 1.700 1.900 182 0 72
12.900 -0.700 -0.300 0 0 255
12.900 -0.700 -0.100 0 0 255
12.900 -0.700 1.900 75 0 179
12.900 -0.500 -0.300 171 0 83
12.900 -0.500 1.900 161 0 93
12.900 -0.300 -0.300 173 0 81
12.900 -0.300 1.900 165 0 89
12.900 -0.100 -0.300 185 0 69
12.900 -0.100 1.900 166 0 88
12.900 0.100 -0.300 196 0 58
12.900 0.100 1.900 166 0 88
12.900 0.300 -0.300 196 0 58
12.900 0.300 1.900 170 0 84
12.900 0.500 -0.300 203 0 51
12.900 0.500 1.900 172 0 82
12.900 0.700 -0.300 202 0 52
12.900 0.700 1.900 167 0 87
12.900 0.900 -0.300 194 0 60
12.900 0.900 1.900 164 0 90
12.900 1.100 -0.300 176 0 78
12.900 1.100 1.900 164 0 90
12.900 1.300 -0.300 173 0 81
12.900 1.300 1.900 162 0 92
12.900 1.500 -0.300 162 0 92
12.900 1.500 1.900 163 0 91
12.900 1.700 -0.300 160 0 94
12.900 1.700 1.900 186 0 68
13.100 -0.900 -0.300 0 0 255
13.100 -0.900 -0.100 2 0 252
13.100 -0.900 0.100 15 0 239
13.100 -0.900 0.300 30 0 224
13.100 -0.900 0.500 39 0 215
13.100 -0.900 0.700 51 0 203
13.100 -0.900 0.900 49 0 205
13.100 -0.700 -0.300 0 0 255
13.100 -0.700 -0.100 0 0 255
13.100 -0.700 0.100 11 0 243
13.100 -0.700 0.300 23 0 231
13.100 -0.700 0.700 48 0 206
13.100 -0.700 1.900 0 0 255
13.100 -0.500 -0.300 173 0 81
13.100 -0.500 1.900 151 0 103
13.100 -0.300 -0.300 176 0 78
13.100 -0.300 1.900 159 0 95
13.100 -0.100 -0.300 191 0 63
13.100 -0.100 1.900 163 0 91
13.100 0.100 -0.300 198 0 56
13.100 0.100 1.900 167 0 87
13.100 0.300 -0.300 197 0 57
13.100 0.300 1.900 170 0 84
13.100 0.500 -0.300 206 0 48
13.100 0.500 1.900 171 0 83
13.100 0.700 -0.300 208 0 46
13.100 0.700 1.900 170 0 84
13.100 0.900 -0.300 192 0 62
13.100 0.900 1.900 168 0 86
13.100 1.100 -0.300 175 0 79
13.100 1.100 1.900 162 0 92
13.100 1.300 -0.300 168 0 86
13.100 1.300 1.900 161 0 93
13.100 1.500 -0.300 167 0 87
13.100 1.500 1.900 160 0 94
13.100 1.700 -0.300 161 0 93
13.100 1.700 1.900 168 0 86
13.300 -0.900 -0.300 0 0 255
13.300 -0.900 -0.100 0 0 255
13.300 -0.900 0.100 11 0 243
13.300 -0.900 0.300 21 0 233
13.300 -0.900 0.500 37 0 217
13.300 -0.900 0.700 44 0 210
13.300 -0.900 0.900 44 0 210
13.300 -0.700 -0.300 0 0 255
13.300 -0.700 -0.100 0 0 255
13.300 -0.700 0.100 9 0 245
13.300 -0.700 0.300 21 0 233
13.300 -0.700 0.500 36 0 218
13.300 -0.700 0.700 40 0 214
13.300 -0.700 0.900 40 0 214
13.300 -0.700 1.900 4 0 250
13.300 -0.500 -0.300 172 0 82
13.300 -0.500 1.900 155 0 99
13.300 -0.300 -0.300 175 0 79
13.300 -0.300 1.900 161 0 93
13.300 -0.100 -0.300 186 0 68
13.300 -0.100 1.900 165 0 89
13.300 0.100 -0.300 192 0 62
13.300 0.100 1.900 169 0 85
13.300 0.300 -0.300 199 0 55
13.300 0.300 1.900 168 0 86
13.300 0.500 -0.300 207 0 47
13.300 0.500 1.900 171 0 83
13.300 0.700 -0.300 203 0 51
13.300 0.700 1.900 167 0 87
13.300 0.900 -0.300 198 0 56
13.300 0.900 1.900 165 0 89
13.300 1.100 -0.300 179 0 75
13.300 1.100 1.900 164 0 90
13.300 1.300 -0.300 172 0 82
13.300 1.300 1.900 157 0 97
13.300 1.500 -0.300 162 0 92
13.300 1.500 1.900 157 0 97
13.300 1.700 -0.300 159 0 95
13.300 1.700 1.900 176 0 78
13.500 -0.900 -0.100 6 0 248
13.500 -0.900 0.100 9 0 245
13.500 -0.900 0.300 22 0 232
13.500 -0.900 0.500 31 0 223
13.500 -0.900 0.700 40 0 214
13.500 -0.900 0.900 41 0 213
13.500 -0.700 -0.300 0 0 255
13.500 -0.700 -0.100 0 0 255
13.500 -0.700 0.100 11 0 243
13.500 -0.700 0.300 22 0 232
13.500 -0.700 0.500 34 0 220
13.500 -0.700 0.700 38 0 216
13.500 -0.700 0.900 39 0 215
13.500 -0.700 1.100 37 0 217
13.500 -0.700 1.900 21 0 233
13.500 -0.500 -0.300 172 0 82
13.500 -0.500 1.900 153 0 101
13.500 -0.300 -0.300 176 0 78
13.500 -0.300 1.900 159 0 95
13.500 -0.100 -0.300 192 0 62
13.500 -0.100 1.900 167 0 87
13.500 0.100 -0.300 192 0 62
13.500 0.100 1.900 171 0 83
13.500 0.300 -0.300 185 0 69
13.500 0.300 1.900 173 0 81
13.500 0.500 -0.300 192 0 62
13.500 0.500 1.900 174 0 80
13.500 0.700 -0.300 201 0 53
13.500 0.700 1.900 174 0 80
13.500 0.900 -0.300 194 0 60
13.500 0.900 1.900 168 0 86
13.500 1.100 -0.300 176 0 78
13.500 1.100 1.900 167 0 87
13.500 1.300 -0.300 175 0 79
13.500 1.300 1.900 160 0 94
13.500 1.500 -0.300 166 0 88
13.500 1.500 1.900 160 0 94
13.500 1.700 -0.300 156 0 98
13.500 1.700 1.900 169 0 85
13.700 -0.700 -0.300 0 0 255
13.700 -0.700 -0.100 0 0 255
13.700 -0.700 0.100 14 0 240
13.700 -0.700 0.300 22 0 232
13.700 -0.700 0.500 33 0 221
13.700 -0.700 0.700 38 0 216
13.700 -0.700 0.900 41 0 213
13.700 -0.700 1.100 38 0 216
13.700 -0.700 1.900 7 0 247
13.700 -0.500 -0.300 172 0 82
13.700 -0.500 1.900 158 0 96
13.700 -0.300 -0.300 173 0 81
13.700 -0.300 1.900 162 0 92
13.700 -0.100 -0.300 186 0 68
13.700 -0.100 1.900 165 0 89
13.700 0.100 -0.300 198 0 56
13.700 0.100 1.900 170 0 84
13.700 0.300 -0.300 203 0 51
13.700 0.300 1.900 171 0 83
13.700 0.500 -0.300 212 0 42
13.700 0.500 1.900 170 0 84
13.700 0.700 -0.300 210 0 44
13.700 0.700 1.900 170 0 84
13.700 0.900 -0.300 198 0 56
13.700 0.900 1.900 166 0 88
13.700 1.100 -0.300 181 0 73
13.700 1.100 1.900 166 0 88
13.700 1.300 -0.300 172 0 82
13.700 1.300 1.900 163 0 91
13.700 1.500 -0.300 160 0 94
13.700 1.500 1.900 164 0 90
13.700 1.700 -0.300 159 0 95
13.700 1.700 1.900 168 0 86
13.900 -0.700 -0.300 0 0 255
13.900 -0.700 -0.100 1 0 253
13.900 -0.700 0.100 17 0 237
13.900 -0.700 0.300 27 0 227
13.900 -0.700 0.500 36 0 218
13.900 -0.700 0.700 46 0 208
13.900 -0.700 0.900 44 0 210
13.900 -0.700 1.100 178 0 76
13.900 -0.700 1.300 50 0 204
13.900 -0.700 1.900 17 0 237
13.900 -0.500 -0.300 171 0 83
13.900 -0.500 1.900 161 0 93
13.900 -0.300 -0.300 172 0 82
13.900 -0.300 1.900 162 0 92
13.900 -0.100 -0.300 184 0 70
13.900 -0.100 1.900 165 0 89
13.900 0.100 -0.300 192 0 62
13.900 0.100 1.900 167 0 87
13.900 0.300 -0.300 193 0 61
13.900 0.300 1.900 172 0 82
13.900 0.500 -0.300 201 0 53
13.900 0.500 1.900 172 0 82
13.900 0.700 -0.300 205 0 49
13.900 0.700 1.900 172 0 82
13.900 0.900 -0.300 198 0 56
13.900 0.900 1.900 168 0 86
13.900 1.100 -0.300 180 0 74
13.900 1.100 1.900 167 0 87
13.900 1.300 -0.300 167 0 87
13.900 1.300 1.900 164 0 90
13.900 1.500 -0.300 159 0 95
13.900 1.500 1.900 159 0 95
13.900 1.700 -0.300 160 0 94
13.900 1.700 1.900 170 0 84
14.100 -0.700 -0.300 0 0 254
14.100 -0.700 -0.100 1 0 253
14.100 -0.700 0.100 16 0 238
14.100 -0.700 0.300 26 0 228
14.100 -0.700 0.500 40 0 214
14.100 -0.700 0.700 45 0 209
14.100 -0.700 0.900 46 0 208
14.100 -0.700 1.100 178 0 76
14.100 -0.700 1.300 43 0 211
14.100 -0.700 1.900 27 0 227
14.100 -0.500 -0.300 172 0 82
14.100 -0.500 1.900 157 0 97
14.100 -0.300 -0.300 175 0 79
14.100 -0.300 1.900 163 0 91
14.100 -0.100 -0.300 186 0 68
14.100 -0.100 1.900 167 0 87
14.100 0.100 -0.300 188 0 66
14.100 0.100 1.900 170 0 84
14.100 0.300 -0.300 194 0 60
14.100 0.300 1.900 171 0 83
14.100 0.500 -0.300 201 0 53
14.100 0.500 1.900 170 0 84
14.100 0.700 -0.300 204 0 50
14.100 0.700 1.900 172 0 82
14.100 0.900 -0.300 195 0 59
14.100 0.900 1.900 172 0 82
14.100 1.100 -0.300 176 0 78
14.100 1.100 1.900 168 0 86
14.100 1.300 -0.300 171 0 83
14.100 1.300 1.900 163 0 91
14.100 1.500 -0.300 170 0 84
14.100 1.500 1.900 159 0 95
14.100 1.700 -0.300 163 0 91
14.100 1.700 1.900 165 0 89
14.300 -0.700 -0.300 0 0 254
14.300 -0.700 -0.100 1 0 253
14.300 -0.700 0.100 17 0 237
14.300 -0.700 0.300 27 0 227
14.300 -0.700 0.500 38 0 216
14.300 -0.700 0.700 45 0 209
14.300 -0.700 0.900 46 0 208
14.300 -0.700 1.100 172 0 82
14.300 -0.700 1.300 44 0 210
14.300 -0.700 1.500 37 0 217
14.300 -0.700 1.900 13 0 241
14.300 -0.500 -0.300 170 0 84
14.300 -0.500 1.900 155 0 99
14.300 -0.300 -0.300 174 0 80
14.300 -0.300 1.900 165 0 89
14.300 -0.100 -0.300 181 0 73
14.300 -0.100 1.900 170 0 84
14.300 0.100 -0.300 186 0 68
14.300 0.100 1.900 172 0 82
14.300 0.300 -0.300 193 0 61
14.300 0.300 1.900 174 0 80
14.300 0.500 -0.300 204 0 50
14.300 0.500 1.900 175 0 79
14.300 0.700 -0.300 208 0 46
14.300 0.700 1.900 174 0 80
14.300 0.900 -0.300 204 0 50
14.300 0.900 1.900 173 0 81
14.300 1.100 -0.300 190 0 64
14.300 1.100 1.900 172 0 82
14.300 1.300 -0.300 170 0 84
14.300 1.300 1.900 168 0 86
14.300 1.500 -0.300 169 0 85
14.300 1.500 1.900 163 0 91
14.300 1.700 -0.300 160 0 94
14.300 1.700 1.900 165 0 89
14.500 -0.700 -0.300 1 0 253
14.500 -0.700 -0.100 1 0 253
14.500 -0.700 0.100 17 0 237
14.500 -0.700 0.300 26 0 228
14.500 -0.700 0.500 37 0 217
14.500 -0.700 0.700 45 0 209
14.500 -0.700 0.900 43 0 211
14.500 -0.700 1.100 174 0 80
14.500 -0.700 1.300 48 0 206
14.500 -0.700 1.500 37 0 217
14.500 -0.700 1.900 34 0 220
14.500 -0.500 -0.300 172 0 82
14.500 -0.500 1.900 156 0 98
14.500 -0.300 -0.300 173 0 81
14.500 -0.300 1.900 163 0 91
14.500 -0.100 -0.300 179 0 75
14.500 -0.100 1.900 165 0 89
14.500 0.100 -0.300 194 0 60
14.500 0.100 1.900 172 0 82
14.500 0.300 -0.300 199 0 55
14.500 0.300 1.900 172 0 82
14.500 0.500 -0.300 204 0 50
14.500 0.500 1.900 173 0 81
14.500 0.700 -0.300 209 0 45
14.500 0.700 1.900 174 0 80
14.500 0.900 -0.300 205 0 49
14.500 0.900 1.900 168 0 86
14.500 1.100 -0.300 190 0 64
14.500 1.100 1.900 169 0 85
14.500 1.300 -0.300 171 0 83
14.500 1.300 1.900 164 0 90
14.500 1.500 -0.300 170 0 84
14.500 1.500 1.900 158 0 96
14.500 1.700 -0.300 167 0 87
14.500 1.700 1.900 166 0 88
14.700 -0.700 -0.300 2 0 252
14.700 -0.700 -0.100 3 0 251
14.700 -0.700 0.100 18 0 236
14.700 -0.700 0.300 28 0 226
14.700 -0.700 0.500 38 0 216
14.700 -0.700 0.700 48 0 206
14.700 -0.700 0.900 47 0 207
14.700 -0.700 1.100 176 0 78
14.700 -0.700 1.300 38 0 216
14.700 -0.700 1.500 44 0 210
14.700 -0.700 1.700 36 0 218
14.700 -0.700 1.900 23 0 231
14.700 -0.500 -0.300 174 0 80
14.700 -0.500 1.900 160 0 94
14.700 -0.300 -0.300 177 0 77
14.700 -0.300 1.900 163 0 91
14.700 -0.100 -0.300 177 0 77
14.700 -0.100 1.900 167 0 87
14.700 0.100 -0.300 184 0 70
14.700 0.100 1.900 171 0 83
14.700 0.300 -0.300 194 0 60
14.700 0.300 1.900 174 0 80
14.700 0.500 -0.300 206 0 48
14.700 0.500 1.900 174 0 80
14.700 0.700 -0.300 210 0 44
14.700 0.700 1.900 175 0 79
14.700 0.900 -0.300 204 0 50
14.700 0.900 1.900 173 0 81
14.700 1.100 -0.300 191 0 63
14.700 1.100 1.900 171 0 83
14.700 1.300 -0.300 170 0 84
14.700 1.300 1.900 168 0 86
14.700 1.500 -0.300 170 0 84
14.700 1.500 1.900 160 0 94
14.700 1.700 -0.300 160 0 94
14.700 1.700 1.900 161 0 93
14.900 -0.700 -0.300 3 0 251
14.900 -0.700 -0.100 2 0 252
14.900 -0.700 0.100 19 0 235
14.900 -0.700 0.300 28 0 226
14.900 -0.700 0.500 37 0 217
14.900 -0.700 0.700 47 0 207
14.900 -0.700 0.900 46 0 208
14.900 -0.700 1.100 42 0 212
14.900 -0.700 1.300 45 0 209
14.900 -0.700 1.500 43 0 211
14.900 -0.700 1.900 35 0 219
14.900 -0.500 -0.300 173 0 81
14.900 -0.500 1.900 166 0 88
14.900 -0.300 -0.300 176 0 78
14.900 -0.300 1.900 160 0 94
14.900 -0.100 -0.300 186 0 68
14.900 -0.100 1.900 167 0 87
14.900 0.100 -0.300 191 0 63
14.900 0.100 1.900 171 0 83
14.900 0.300 -0.300 192 0 62
14.900 0.300 1.900 171 0 83
14.900 0.500 -0.300 205 0 49
14.900 0.500 1.900 174 0 80
14.900 0.700 -0.300 206 0 48
14.900 0.700 1.900 174 0 80
14.900 0.900 -0.300 204 0 50
14.900 0.900 1.900 172 0 82
14.900 1.100 -0.300 189 0 65
14.900 1.100 1.900 171 0 83
14.900 1.300 -0.300 163 0 91
14.900 1.300 1.900 167 0 87
14.900 1.500 -0.300 161 0 93
14.900 1.500 1.900 160 0 94
14.900 1.700 -0.300 166 0 88
14.900 1.700 1.900 166 0 88
15.100 -0.700 -0.300 3 0 251
15.100 -0.700 -0.100 3 0 251
15.100 -0.700 0.100 18 0 236
15.100 -0.700 0.300 31 0 223
15.100 -0.700 0.500 39 0 215
15.100 -0.700 0.700 47 0 207
15.100 -0.700 0.900 48 0 206
15.100 -0.700 1.100 44 0 210
15.100 -0.700 1.300 45 0 209
15.100 -0.700 1.500 6 0 248
15.100 -0.700 1.700 28 0 226
15.100 -0.700 1.900 29 0 225
15.100 -0.500 -0.300 173 0 81
15.100 -0.500 1.900 167 0 87
15.100 -0.300 -0.300 175 0 79
15.100 -0.300 1.900 171 0 83
15.100 -0.100 -0.300 176 0 78
15.100 -0.100 1.900 173 0 81
15.100 0.100 -0.300 180 0 74
15.100 0.100 1.900 176 0 78
15.100 0.300 -0.300 195 0 59
15.100 0.300 1.900 179 0 75
15.100 0.500 -0.300 206 0 48
15.100 0.500 1.900 181 0 73
15.100 0.700 -0.300 206 0 48
15.100 0.700 1.900 180 0 74
15.100 0.900 -0.300 205 0 49
15.100 0.900 1.900 179 0 75
15.100 1.100 -0.300 195 0 59
15.100 1.100 1.900 175 0 79
15.100 1.300 -0.300 178 0 76
15.100 1.300 1.900 170 0 84
15.100 1.500 -0.300 171 0 83
15.100 1.500 1.900 162 0 92
15.100 1.700 -0.300 164 0 90
15.100 1.700 1.900 164 0 90
15.300 -0.700 -0.300 3 0 251
15.300 -0.700 -0.100 3 0 251
15.300 -0.700 0.100 19 0 235
15.300 -0.700 0.300 28 0 226
15.300 -0.700 0.500 40 0 214
15.300 -0.700 0.700 46 0 208
15.300 -0.700 0.900 48 0 206
15.300 -0.700 1.100 44 0 210
15.300 -0.700 1.300 37 0 217
15.300 -0.700 1.500 41 0 213
15.300 -0.700 1.700 43 0 211
15.300 -0.700 1.900 32 0 222
15.300 -0.500 -0.300 170 0 84
15.300 -0.500 1.900 167 0 87
15.300 -0.300 -0.300 172 0 82
15.300 -0.300 1.900 163 0 91
15.300 -0.100 -0.300 176 0 78
15.300 -0.100 1.900 168 0 86
15.300 0.100 -0.300 190 0 64
15.300 0.100 1.900 174 0 80
15.300 0.300 -0.300 200 0 54
15.300 0.300 1.900 177 0 77
15.300 0.500 -0.300 207 0 47
15.300 0.500 1.900 174 0 80
15.300 0.700 -0.300 213 0 41
15.300 0.700 1.900 172 0 82
15.300 0.900 -0.300 209 0 45
15.300 0.900 1.900 174 0 80
15.300 1.100 -0.300 196 0 58
15.300 1.100 1.900 172 0 82
15.300 1.300 -0.300 179 0 75
15.300 1.300 1.900 174 0 80
15.300 1.500 -0.300 167 0 87
15.300 1.500 1.900 165 0 89
15.300 1.700 -0.300 167 0 87
15.300 1.700 1.900 164 0 90
15.500 -0.900 1.700 26 0 228
15.500 -0.700 -0.300 3 0 251
15.500 -0.700 -0.100 2 0 252
15.500 -0.700 0.100 17 0 237
15.500 -0.700 0.300 28 0 226
15.500 -0.700 0.500 36 0 218
15.500 -0.700 0.700 47 0 207
15.500 -0.700 0.900 45 0 209
15.500 -0.700 1.100 43 0 211
15.500 -0.700 1.300 173 0 81
15.500 -0.700 1.500 45 0 209
15.500 -0.700 1.700 40 0 214
15.500 -0.700 1.900 11 0 243
15.500 -0.500 -0.300 172 0 82
15.500 -0.500 1.900 159 0 95
15.500 -0.300 -0.300 173 0 81
15.500 -0.300 1.900 168 0 86
15.500 -0.100 -0.300 183 0 71
15.500 -0.100 1.900 172 0 82
15.500 0.100 -0.300 195 0 59
15.500 0.100 1.900 179 0 75
15.500 0.300 -0.300 199 0 55
15.500 0.300 1.900 177 0 77
15.500 0.500 -0.300 202 0 52
15.500 0.500 1.900 182 0 72
15.500 0.700 -0.300 203 0 51
15.500 0.700 1.900 180 0 74
15.500 0.900 -0.300 205 0 49
15.500 0.900 1.900 177 0 77
15.500 1.100 -0.300 196 0 58
15.500 1.100 1.900 179 0 75
15.500 1.300 -0.300 179 0 75
15.500 1.300 1.900 177 0 77
15.500 1.500 -0.300 164 0 90
15.500 1.500 1.900 167 0 87
15.500 1.700 -0.300 166 0 88
15.500 1.700 1.900 164 0 90
15.700 -0.700 -0.300 2 0 252
15.700 -0.700 -0.100 4 0 250
15.700 -0.700 0.100 19 0 235
15.700 -0.700 0.300 28 0 226
15.700 -0.700 0.500 40 0 214
15.700 -0.700 0.700 175 0 79
15.700 -0.700 0.900 179 0 75
15.700 -0.700 1.100 44 0 210
15.700 -0.700 1.300 172 0 82
15.700 -0.700 1.500 169 0 85
15.700 -0.700 1.700 37 0 217
15.700 -0.700 1.900 24 0 230
15.700 -0.500 -0.300 171 0 83
15.700 -0.500 1.900 166 0 88
15.700 -0.300 -0.300 174 0 80
15.700 -0.300 1.900 172 0 82
15.700 -0.100 -0.300 176 0 78
15.700 -0.100 1.900 176 0 78
15.700 0.100 -0.300 182 0 72
15.700 0.100 1.900 182 0 72
15.700 0.300 -0.300 189 0 65
15.700 0.300 1.900 185 0 69
15.700 0.500 -0.300 197 0 57
15.700 0.500 1.900 184 0 70
15.700 0.700 -0.300 202 0 52
15.700 0.700 1.900 186 0 68
15.700 0.900 -0.300 201 0 53
15.700 0.900 1.900 185 0 69
15.700 1.100 -0.300 191 0 63
15.700 1.100 1.900 183 0 71
15.700 1.300 -0.300 178 0 76
15.700 1.300 1.900 179 0 75
15.700 1.500 -0.300 166 0 88
15.700 1.500 1.900 169 0 85
15.700 1.700 -0.300 165 0 89
15.700 1.700 1.900 166 0 88
15.900 -0.700 -0.300 2 0 252
15.900 -0.700 -0.100 3 0 251
15.900 -0.700 0.100 17 0 237
15.900 -0.700 0.300 158 0 96
15.900 -0.700 0.500 168 0 86
15.900 -0.700 0.700 173 0 81
15.900 -0.700 0.900 175 0 79
15.900 -0.700 1.100 45 0 209
15.900 -0.700 1.300 170 0 84
15.900 -0.700 1.500 174 0 80
15.900 -0.700 1.700 48 0 206
15.900 -0.700 1.900 29 0 225
15.900 -0.500 -0.300 170 0 84
15.900 -0.500 1.900 169 0 85
15.900 -0.300 -0.300 173 0 81
15.900 -0.300 1.900 171 0 83
15.900 -0.100 -0.300 183 0 71
15.900 -0.100 1.900 173 0 81
15.900 0.100 -0.300 186 0 68
15.900 0.100 1.900 177 0 77
15.900 0.300 -0.300 195 0 59
15.900 0.300 1.900 177 0 77
15.900 0.500 -0.300 201 0 53
15.900 0.500 1.900 179 0 75
15.900 0.700 -0.300 201 0 53
15.900 0.700 1.900 179 0 75
15.900 0.900 -0.300 206 0 48
15.900 0.900 1.900 175 0 79
15.900 1.100 -0.300 201 0 53
15.900 1.100 1.900 172 0 82
15.900 1.300 -0.300 191 0 63
15.900 1.300 1.900 169 0 85
15.900 1.500 -0.300 169 0 85
15.900 1.500 1.900 157 0 97
15.900 1.700 -0.300 170 0 84
15.900 1.700 1.900 157 0 97
16.100 -0.700 -0.300 2 0 252
16.100 -0.700 -0.100 2 0 252
16.100 -0.700 0.100 149 0 105
16.100 -0.700 0.300 157 0 97
16.100 -0.700 0.500 167 0 87
16.100 -0.700 0.700 176 0 78
16.100 -0.700 0.900 178 0 76
16.100 -0.700 1.100 171 0 83
16.100 -0.700 1.300 172 0 82
16.100 -0.700 1.500 168 0 86
16.100 -0.700 1.700 37 0 217
16.100 -0.700 1.900 27 0 227
16.100 -0.500 -0.300 168 0 86
16.100 -0.500 1.900 170 0 84
16.100 -0.300 -0.300 170 0 84
16.100 -0.300 1.900 167 0 87
16.100 -0.100 -0.300 177 0 77
16.100 -0.100 1.900 170 0 84
16.100 0.100 -0.300 191 0 63
16.100 0.100 1.900 176 0 78
16.100 0.300 -0.300 203 0 51
16.100 0.300 1.900 178 0 76
16.100 0.500 -0.300 207 0 47
16.100 0.500 1.900 180 0 74
16.100 0.700 -0.300 208 0 46
16.100 0.700 1.900 179 0 75
16.100 0.900 -0.300 214 0 40
16.100 0.900 1.900 181 0 73
16.100 1.100 -0.300 210 0 44
16.100 1.100 1.900 176 0 78
16.100 1.300 -0.300 194 0 60
16.100 1.300 1.900 176 0 78
16.100 1.500 -0.300 173 0 81
16.100 1.500 1.900 169 0 85
16.100 1.700 -0.300 168 0 86
16.100 1.700 1.900 162 0 92
16.300 -0.700 -0.300 2 0 252
16.300 -0.700 -0.100 3 0 251
16.300 -0.700 0.100 147 0 107
16.300 -0.700 0.300 156 0 98
16.300 -0.700 0.500 167 0 87
16.300 -0.700 0.700 177 0 77
16.300 -0.700 0.900 177 0 77
16.300 -0.700 1.100 174 0 80
16.300 -0.700 1.300 170 0 84
16.300 -0.700 1.500 169 0 85
16.300 -0.700 1.700 31 0 223
16.300 -0.700 1.900 24 0 230
16.300 -0.500 -0.300 168 0 86
16.300 -0.500 1.900 175 0 79
16.300 -0.300 -0.300 167 0 87
16.300 -0.300 1.900 176 0 78
16.300 -0.100 -0.300 175 0 79
16.300 -0.100 1.900 179 0 75
16.300 0.100 -0.300 188 0 66
16.300 0.100 1.900 182 0 72
16.300 0.300 -0.300 188 0 66
16.300 0.300 1.900 187 0 67
16.300 0.500 -0.300 200 0 54
16.300 0.500 1.900 185 0 69
16.300 0.700 -0.300 203 0 51
16.300 0.700 1.900 188 0 66
16.300 0.900 -0.300 199 0 55
16.300 0.900 1.900 183 0 71
16.300 1.100 -0.300 190 0 64
16.300 1.100 1.900 182 0 72
16.300 1.300 -0.300 179 0 75
16.300 1.300 1.900 186 0 68
16.300 1.500 -0.300 161 0 93
16.300 1.500 1.900 180 0 74
16.300 1.700 -0.300 160 0 94
16.300 1.700 1.900 171 0 83
16.500 -0.700 -0.300 2 0 252
16.500 -0.700 -0.100 2 0 252
16.500 -0.700 0.100 148 0 106
16.500 -0.700 0.300 157 0 97
16.500 -0.700 0.500 164 0 90
16.500 -0.700 0.700 175 0 79
16.500 -0.700 0.900 176 0 78
16.500 -0.700 1.100 170 0 84
16.500 -0.700 1.300 173 0 81
16.500 -0.700 1.500 167 0 87
16.500 -0.700 1.700 34 0 220
16.500 -0.700 1.900 20 0 234
16.500 -0.500 -0.300 171 0 83
16.500 -0.500 1.900 168 0 86
16.500 -0.300 -0.300 169 0 85
16.500 -0.300 1.900 166 0 88
16.500 -0.100 -0.300 178 0 76
16.500 -0.100 1.900 174 0 80
16.500 0.100 -0.300 184 0 70
16.500 0.100 1.900 183 0 71
16.500 0.300 -0.300 197 0 57
16.500 0.300 1.900 183 0 71
16.500 0.500 -0.300 197 0 57
16.500 0.500 1.900 184 0 70
16.500 0.700 -0.300 199 0 55
16.500 0.700 1.900 190 0 64
16.500 0.900 -0.300 201 0 53
16.500 0.900 1.900 187 0 67
16.500 1.100 -0.300 198 0 56
16.500 1.100 1.900 192 0 62
16.500 1.300 -0.300 184 0 70
16.500 1.300 1.900 193 0 61
16.500 1.500 -0.300 177 0 77
16.500 1.500 1.900 176 0 78
16.500 1.700 -0.300 168 0 86
16.500 1.700 1.900 167 0 87
16.700 -0.700 -0.300 2 0 252
16.700 -0.700 -0.100 2 0 252
16.700 -0.700 0.100 148 0 106
16.700 -0.700 0.300 156 0 98
16.700 -0.700 0.500 166 0 88
16.700 -0.700 0.700 173 0 81
16.700 -0.700 0.900 175 0 79
16.700 -0.700 1.100 174 0 80
16.700 -0.700 1.300 165 0 89
16.700 -0.700 1.500 166 0 88
16.700 -0.700 1.700 31 0 223
16.700 -0.700 1.900 37 0 217
16.700 -0.500 -0.300 168 0 86
16.700 -0.500 1.900 164 0 90
16.700 -0.300 -0.300 168 0 86
16.700 -0.300 1.900 166 0 88
16.700 -0.100 -0.300 175 0 79
16.700 -0.100 1.900 170 0 84
16.700 0.100 -0.300 181 0 73
16.700 0.100 1.900 173 0 81
16.700 0.300 -0.300 199 0 55
16.700 0.300 1.900 178 0 76
16.700 0.500 -0.300 210 0 44
16.700 0.500 1.900 177 0 77
16.700 0.700 -0.300 213 0 41
16.700 0.700 1.900 181 0 73
16.700 0.900 -0.300 214 0 40
16.700 0.900 1.900 180 0 74
16.700 1.100 -0.300 211 0 43
16.700 1.100 1.900 180 0 74
16.700 1.300 -0.300 203 0 51
16.700 1.300 1.900 183 0 71
16.700 1.500 -0.300 170 0 84
16.700 1.500 1.900 176 0 78
16.700 1.700 -0.300 160 0 94
16.700 1.700 1.900 166 0 88
16.900 -0.700 -0.300 1 0 253
16.900 -0.700 -0.100 2 0 252
16.900 -0.700 0.100 148 0 106
16.900 -0.700 0.300 155 0 99
16.900 -0.700 0.500 162 0 92
16.900 -0.700 0.700 177 0 77
16.900 -0.700 0.900 176 0 78
16.900 -0.700 1.100 173 0 81
16.900 -0.700 1.300 168 0 86
16.900 -0.700 1.500 166 0 88
16.900 -0.700 1.700 36 0 218
16.900 -0.700 1.900 28 0 226
16.900 -0.500 -0.300 166 0 88
16.900 -0.500 1.900 175 0 79
16.900 -0.300 -0.300 173 0 81
16.900 -0.300 1.900 181 0 73
16.900 -0.100 -0.300 177 0 77
16.900 -0.100 1.900 185 0 69
16.900 0.100 -0.300 190 0 64
16.900 0.100 1.900 192 0 62
16.900 0.300 -0.300 201 0 53
16.900 0.300 1.900 199 0 55
16.900 0.500 -0.300 203 0 51
16.900 0.500 1.900 200 0 54
16.900 0.700 -0.300 207 0 47
16.900 0.700 1.900 205 0 49
16.900 0.900 -0.300 200 0 54
16.900 0.900 1.900 200 0 54
16.900 1.100 -0.300 187 0 67
16.900 1.100 1.900 204 0 50
16.900 1.300 -0.300 177 0 77
16.900 1.300 1.900 199 0 55
16.900 1.500 -0.300 176 0 78
16.900 1.500 1.900 190 0 64
16.900 1.700 -0.300 169 0 85
16.900 1.700 1.900 174 0 80
17.100 -0.700 -0.300 1 0 253
17.100 -0.700 -0.100 2 0 252
17.100 -0.700 0.100 148 0 106
17.100 -0.700 0.300 155 0 99
17.100 -0.700 0.500 166 0 88
17.100 -0.700 0.700 172 0 82
17.100 -0.700 0.900 176 0 78
17.100 -0.700 1.100 171 0 83
17.100 -0.700 1.300 171 0 83
17.100 -0.700 1.500 167 0 87
17.100 -0.700 1.700 34 0 220
17.100 -0.700 1.900 23 0 231
17.100 -0.500 -0.300 163 0 91
17.100 -0.500 1.900 176 0 78
17.100 -0.300 -0.300 170 0 84
17.100 -0.300 1.900 195 0 59
17.100 -0.100 -0.300 176 0 78
17.100 -0.100 1.900 196 0 58
17.100 0.100 -0.300 181 0 73
17.100 0.100 1.900 206 0 48
17.100 0.300 -0.300 195 0 59
17.100 0.300 1.900 202 0 52
17.100 0.500 -0.300 207 0 47
17.100 0.500 1.900 206 0 48
17.100 0.700 -0.300 206 0 48
17.100 0.700 1.900 208 0 46
17.100 0.900 -0.300 200 0 54
17.100 0.900 1.900 207 0 47
17.100 1.100 -0.300 196 0 58
17.100 1.100 1.900 200 0 54
17.100 1.300 -0.300 183 0 71
17.100 1.300 1.900 200 0 54
17.100 1.500 -0.300 169 0 85
17.100 1.500 1.900 191 0 63
17.100 1.700 -0.300 162 0 92
17.100 1.700 1.900 175 0 79
17.300 -0.700 -0.300 0 0 255
17.300 -0.700 -0.100 0 0 255
17.300 -0.700 0.100 144 0 110
17.300 -0.700 0.300 153 0 101
17.300 -0.700 0.500 162 0 92
17.300 -0.700 0.700 164 0 90
17.300 -0.700 0.900 173 0 81
17.300 -0.700 1.100 171 0 83
17.300 -0.700 1.300 171 0 83
17.300 -0.700 1.500 167 0 87
17.300 -0.700 1.700 27 0 227
17.300 -0.700 1.900 28 0 226
17.300 -0.500 -0.300 157 0 97
17.300 -0.500 1.900 175 0 79
17.300 -0.300 -0.300 167 0 87
17.300 -0.300 1.900 188 0 66
17.300 -0.100 -0.300 176 0 78
17.300 -0.100 1.900 197 0 57
17.300 0.100 -0.300 193 0 61
17.300 0.100 1.900 206 0 48
17.300 0.300 -0.300 200 0 54
17.300 0.300 1.900 206 0 48
17.300 0.500 -0.300 199 0 55
17.300 0.500 1.900 208 0 46
17.300 0.700 -0.300 206 0 48
17.300 0.700 1.900 212 0 42
17.300 0.900 -0.300 190 0 64
17.300 0.900 1.900 205 0 49
17.300 1.100 -0.300 192 0 62
17.300 1.100 1.900 207 0 47
17.300 1.300 -0.300 194 0 60
17.300 1.300 1.900 205 0 49
17.300 1.500 -0.300 183 0 71
17.300 1.500 1.900 192 0 62
17.300 1.700 -0.300 157 0 97
17.300 1.700 1.900 176 0 78
17.500 -0.700 -0.300 0 0 255
17.500 -0.700 -0.100 0 0 255
17.500 -0.700 0.100 140 0 114
17.500 -0.700 0.300 151 0 103
17.500 -0.700 0.500 159 0 95
17.500 -0.700 0.700 167 0 87
17.500 -0.700 0.900 172 0 82
17.500 -0.700 1.100 169 0 85
17.500 -0.700 1.300 163 0 91
17.500 -0.700 1.500 165 0 89
17.500 -0.700 1.700 160 0 94
17.500 -0.700 1.900 157 0 97
17.500 -0.500 -0.300 166 0 88
17.500 -0.500 1.900 176 0 78
17.500 -0.300 -0.300 171 0 83
17.500 -0.300 1.900 185 0 69
17.500 -0.100 -0.300 178 0 76
17.500 -0.100 1.900 189 0 65
17.500 0.100 -0.300 191 0 63
17.500 0.100 1.900 199 0 55
17.500 0.300 -0.300 207 0 47
17.500 0.300 1.900 204 0 50
17.500 0.500 -0.300 212 0 42
17.500 0.500 1.900 200 0 54
17.500 0.700 -0.300 212 0 42
17.500 0.700 1.900 199 0 55
17.500 0.900 -0.300 213 0 41
17.500 0.900 1.900 194 0 60
17.500 1.100 -0.300 208 0 46
17.500 1.100 1.900 196 0 58
17.500 1.300 -0.300 194 0 60
17.500 1.300 1.900 182 0 72
17.500 1.500 -0.300 172 0 82
17.500 1.500 1.900 181 0 73
17.500 1.700 -0.300 164 0 90
17.500 1.700 1.900 172 0 82
17.700 -0.700 -0.300 0 0 255
17.700 -0.700 -0.100 0 0 255
17.700 -0.700 0.100 0 0 255
17.700 -0.700 0.300 6 0 248
17.700 -0.700 0.500 17 0 237
17.700 -0.700 0.700 23 0 231
17.700 -0.700 0.900 171 0 83
17.700 -0.700 1.100 168 0 86
17.700 -0.700 1.300 168 0 86
17.700 -0.700 1.500 165 0 89
17.700 -0.700 1.700 37 0 217
17.700 -0.700 1.900 32 0 222
17.700 -0.500 -0.300 156 0 98
17.700 -0.500 1.900 169 0 85
17.700 -0.300 -0.300 162 0 92
17.700 -0.300 1.900 169 0 85
17.700 -0.100 -0.300 182 0 72
17.700 -0.100 1.900 175 0 79
17.700 0.100 -0.300 188 0 66
17.700 0.100 1.900 176 0 78
17.700 0.300 -0.300 201 0 53
17.700 0.300 1.900 180 0 74
17.700 0.500 -0.300 206 0 48
17.700 0.500 1.900 187 0 67
17.700 0.700 -0.300 209 0 45
17.700 0.700 1.900 193 0 61
17.700 0.900 -0.300 205 0 49
17.700 0.900 1.900 192 0 62
17.700 1.100 -0.300 200 0 54
17.700 1.100 1.900 190 0 64
17.700 1.300 -0.300 186 0 68
17.700 1.300 1.900 192 0 62
17.700 1.500 -0.300 178 0 76
17.700 1.500 1.900 187 0 67
17.700 1.700 -0.300 165 0 89
17.700 1.700 1.900 175 0 79
17.900 -0.700 -0.300 0 0 255
17.900 -0.700 -0.100 0 0 255
17.900 -0.700 0.100 0 0 255
17.900 -0.700 0.300 152 0 102
17.900 -0.700 0.500 16 0 238
17.900 -0.700 0.700 167 0 87
17.900 -0.700 0.900 166 0 88
17.900 -0.700 1.100 163 0 91
17.900 -0.700 1.300 165 0 89
17.900 -0.700 1.500 161 0 93
17.900 -0.700 1.700 165 0 89
17.900 -0.700 1.900 162 0 92
17.900 -0.500 -0.300 163 0 91
17.900 -0.500 1.900 178 0 76
17.900 -0.300 -0.300 169 0 85
17.900 -0.300 1.900 183 0 71
17.900 -0.100 -0.300 177 0 77
17.900 -0.100 1.900 188 0 66
17.900 0.100 -0.300 193 0 61
17.900 0.100 1.900 201 0 53
17.900 0.300 -0.300 205 0 49
17.900 0.300 1.900 195 0 59
17.900 0.500 -0.300 210 0 44
17.900 0.500 1.900 196 0 58
17.900 0.700 -0.300 205 0 49
17.900 0.700 1.900 195 0 59
17.900 0.900 -0.300 198 0 56
17.900 0.900 1.900 199 0 55
17.900 1.100 -0.300 197 0 57
17.900 1.100 1.900 204 0 50
17.900 1.300 -0.300 187 0 67
17.900 1.300 1.900 197 0 57
17.900 1.500 -0.300 178 0 76
17.900 1.500 1.900 182 0 72
17.900 1.700 -0.300 165 0 89
17.900 1.700 1.900 171 0 83
18.100 -0.700 -0.300 0 0 255
18.100 -0.700 -0.100 0 0 255
18.100 -0.700 0.100 140 0 114
18.100 -0.700 0.300 7 0 247
18.100 -0.700 0.500 18 0 236
18.100 -0.700 0.700 28 0 226
18.100 -0.700 0.900 165 0 89
18.100 -0.700 1.100 167 0 87
18.100 -0.700 1.300 169 0 85
18.100 -0.700 1.500 165 0 89
18.100 -0.700 1.700 162 0 92
18.100 -0.700 1.900 160 0 94
18.100 -0.500 -0.300 164 0 90
18.100 -0.500 1.900 176 0 78
18.100 -0.300 -0.300 173 0 81
18.100 -0.300 1.900 179 0 75
18.100 -0.100 -0.300 190 0 64
18.100 -0.100 1.700 208 0 46
18.100 -0.100 1.900 186 0 68
18.100 0.100 -0.300 197 0 57
18.100 0.100 1.700 223 0 31
18.100 0.100 1.900 193 0 61
18.100 0.300 -0.300 204 0 50
18.100 0.300 1.900 197 0 57
18.100 0.500 -0.300 211 0 43
18.100 0.500 1.700 255 0 0
18.100 0.500 1.900 198 0 56
18.100 0.700 -0.300 210 0 44
18.100 0.700 1.700 229 0 25
18.100 0.700 1.900 198 0 56
18.100 0.900 -0.300 199 0 55
18.100 0.900 1.700 255 0 0
18.100 0.900 1.900 200 0 54
18.100 1.100 -0.300 194 0 60
18.100 1.100 1.700 218 0 36
18.100 1.100 1.900 195 0 59
18.100 1.300 -0.300 186 0 68
18.100 1.300 1.900 188 0 66
18.100 1.500 -0.300 174 0 80
18.100 1.500 1.900 199 0 55
18.100 1.700 -0.300 162 0 92
18.100 1.700 1.900 192 0 62
18.300 -0.700 -0.300 0 0 255
18.300 -0.700 -0.100 0 0 255
18.300 -0.700 0.100 0 0 255
18.300 -0.700 0.300 8 0 246
18.300 -0.700 0.500 19 0 235
18.300 -0.700 0.700 25 0 229
18.300 -0.700 0.900 167 0 87
18.300 -0.700 1.100 166 0 88
18.300 -0.700 1.300 164 0 90
18.300 -0.700 1.500 163 0 91
18.300 -0.700 1.700 156 0 98
18.300 -0.700 1.900 39 0 215
18.300 -0.500 -0.300 158 0 96
18.300 -0.500 1.900 179 0 75
18.300 -0.300 -0.300 166 0 88
18.300 -0.300 1.900 181 0 73
18.300 -0.100 -0.300 185 0 69
18.300 -0.100 1.900 193 0 61
18.300 0.100 -0.300 203 0 51
18.300 0.100 1.900 202 0 52
18.300 0.300 -0.300 209 0 45
18.300 0.300 1.900 201 0 53
18.300 0.500 -0.300 210 0 44
18.300 0.500 1.900 199 0 55
18.300 0.700 -0.300 203 0 51
18.300 0.700 1.700 218 0 36
18.300 0.700 1.900 186 0 68
18.300 0.900 -0.300 196 0 58
18.300 0.900 1.700 255 0 0
18.300 0.900 1.900 205 0 49
18.300 1.100 -0.300 191 0 63
18.300 1.100 1.700 163 0 91
18.300 1.100 1.900 216 0 38
18.300 1.300 -0.300 182 0 72
18.300 1.300 1.900 211 0 43
18.300 1.500 -0.300 174 0 80
18.300 1.500 1.900 201 0 53
18.300 1.700 -0.300 164 0 90
18.300 1.700 1.700 154 0 100
18.300 1.700 1.900 181 0 73
18.500 -0.700 -0.300 0 0 255
18.500 -0.700 -0.100 0 0 255
18.500 -0.700 0.100 0 0 255
18.500 -0.700 0.300 8 0 246
18.500 -0.700 0.500 20 0 234
18.500 -0.700 0.700 27 0 227
18.500 -0.700 0.900 168 0 86
18.500 -0.700 1.100 162 0 92
18.500 -0.700 1.300 167 0 87
18.500 -0.700 1.500 159 0 95
18.500 -0.700 1.700 159 0 95
18.500 -0.700 1.900 164 0 90
18.500 -0.500 -0.300 164 0 90
18.500 -0.500 1.700 189 0 65
18.500 -0.500 1.900 176 0 78
18.500 -0.300 -0.300 171 0 83
18.500 -0.300 1.700 205 0 49
18.500 -0.300 1.900 188 0 66
18.500 -0.100 -0.300 187 0 67
18.500 -0.100 1.700 198 0 56
18.500 -0.100 1.900 197 0 57
18.500 0.100 -0.300 192 0 62
18.500 0.100 1.700 210 0 44
18.500 0.100 1.900 201 0 53
18.500 0.300 -0.300 196 0 58
18.500 0.300 1.700 200 0 54
18.500 0.300 1.900 204 0 50
18.500 0.500 -0.300 203 0 51
18.500 0.500 1.700 201 0 53
18.500 0.500 1.900 196 0 58
18.500 0.700 -0.300 202 0 52
18.500 0.700 1.700 206 0 48
18.500 0.700 1.900 206 0 48
18.500 0.900 -0.300 195 0 59
18.500 0.900 1.700 201 0 53
18.500 0.900 1.900 211 0 43
18.500 1.100 -0.300 190 0 64
18.500 1.100 1.700 182 0 72
18.500 1.100 1.900 200 0 54
18.500 1.300 -0.300 182 0 72
18.500 1.300 1.700 189 0 65
18.500 1.300 1.900 203 0 51
18.500 1.500 -0.300 168 0 86
18.500 1.500 1.700 198 0 56
18.500 1.500 1.900 193 0 61
18.500 1.700 -0.300 155 0 99
18.500 1.700 1.700 207 0 47
18.500 1.700 1.900 185 0 69
18.700 -0.700 -0.300 0 0 255
18.700 -0.700 -0.100 0 0 255
18.700 -0.700 0.100 0 0 255
18.700 -0.700 0.300 6 0 248
18.700 -0.700 0.500 19 0 235
18.700 -0.700 0.700 25 0 229
18.700 -0.700 0.900 170 0 84
18.700 -0.700 1.100 164 0 90
18.700 -0.700 1.300 164 0 90
18.700 -0.700 1.500 166 0 88
18.700 -0.700 1.700 157 0 97
18.700 -0.700 1.900 31 0 223
18.700 -0.500 -0.300 157 0 97
18.700 -0.500 1.700 212 0 42
18.700 -0.500 1.900 190 0 64
18.700 -0.300 -0.300 173 0 81
18.700 -0.300 1.900 207 0 47
18.700 -0.100 -0.300 191 0 63
18.700 -0.100 1.700 229 0 25
18.700 -0.100 1.900 210 0 44
18.700 0.100 -0.300 199 0 55
18.700 0.100 1.700 232 0 22
18.700 0.100 1.900 208 0 46
18.700 0.300 -0.300 208 0 46
18.700 0.300 1.700 220 0 34
18.700 0.300 1.900 217 0 37
18.700 0.500 -0.300 210 0 44
18.700 0.500 1.700 204 0 50
18.700 0.500 1.900 216 0 38
18.700 0.700 -0.300 203 0 51
18.700 0.700 1.700 249 0 5
18.700 0.700 1.900 200 0 54
18.700 0.900 -0.300 196 0 58
18.700 0.900 1.700 248 0 6
18.700 0.900 1.900 219 0 35
18.700 1.100 -0.300 191 0 63
18.700 1.100 1.700 233 0 21
18.700 1.100 1.900 216 0 38
18.700 1.300 -0.300 174 0 80
18.700 1.300 1.700 234 0 20
18.700 1.300 1.900 232 0 22
18.700 1.500 -0.300 177 0 77
18.700 1.500 1.700 241 0 13
18.700 1.500 1.900 240 0 14
18.700 1.700 -0.300 168 0 86
18.700 1.700 1.900 229 0 25
18.900 -0.700 -0.300 0 0 255
18.900 -0.700 -0.100 0 0 255
18.900 -0.700 0.100 0 0 255
18.900 -0.700 0.300 7 0 247
18.900 -0.700 0.500 16 0 238
18.900 -0.700 0.700 27 0 227
18.900 -0.700 0.900 168 0 86
18.900 -0.700 1.100 162 0 92
18.900 -0.700 1.300 163 0 91
18.900 -0.700 1.500 164 0 90
18.900 -0.700 1.700 162 0 92
18.900 -0.700 1.900 164 0 90
18.900 -0.500 -0.300 167 0 87
18.900 -0.500 1.700 195 0 59
18.900 -0.500 1.900 174 0 80
18.900 -0.300 -0.300 173 0 81
18.900 -0.300 1.700 219 0 35
18.900 -0.300 1.900 189 0 65
18.900 -0.100 -0.300 183 0 71
18.900 -0.100 1.700 228 0 26
18.900 -0.100 1.900 194 0 60
18.900 0.100 -0.300 192 0 62
18.900 0.100 1.700 231 0 23
18.900 0.100 1.900 203 0 51
18.900 0.300 -0.300 207 0 47
18.900 0.300 1.700 231 0 23
18.900 0.300 1.900 200 0 54
18.900 0.500 -0.300 208 0 46
18.900 0.500 1.700 244 0 10
18.900 0.500 1.900 216 0 38
18.900 0.700 -0.300 202 0 52
18.900 0.700 1.700 255 0 0
18.900 0.700 1.900 219 0 35
18.900 0.900 -0.300 198 0 56
18.900 0.900 1.700 247 0 7
18.900 0.900 1.900 221 0 33
18.900 1.100 -0.300 202 0 52
18.900 1.100 1.700 245 0 9
18.900 1.100 1.900 232 0 22
18.900 1.300 -0.300 194 0 60
18.900 1.300 1.700 215 0 39
18.900 1.300 1.900 212 0 42
18.900 1.500 -0.300 184 0 70
18.900 1.500 1.700 230 0 24
18.900 1.500 1.900 195 0 59
18.900 1.700 -0.300 173 0 81
18.900 1.700 1.700 250 0 4
18.900 1.700 1.900 178 0 76
19.100 -0.700 -0.300 0 0 255
19.100 -0.700 -0.100 0 0 255
19.100 -0.700 0.100 0 0 255
19.100 -0.700 0.300 5 0 249
19.100 -0.700 0.500 17 0 237
19.100 -0.700 0.700 25 0 229
19.100 -0.700 0.900 171 0 83
19.100 -0.700 1.100 165 0 89
19.100 -0.700 1.300 165 0 89
19.100 -0.700 1.500 165 0 89
19.100 -0.700 1.700 163 0 91
19.100 -0.700 1.900 162 0 92
19.100 -0.500 -0.300 160 0 94
19.100 -0.500 1.700 191 0 63
19.100 -0.500 1.900 188 0 66
19.100 -0.300 -0.300 178 0 76
19.100 -0.300 1.700 217 0 37
19.100 -0.300 1.900 208 0 46
19.100 -0.100 -0.300 193 0 61
19.100 -0.100 1.700 225 0 29
19.100 -0.100 1.900 204 0 50
19.100 0.100 -0.300 201 0 53
19.100 0.100 1.700 235 0 19
19.100 0.100 1.900 203 0 51
19.100 0.300 -0.300 204 0 50
19.100 0.300 1.700 228 0 26
19.100 0.300 1.900 202 0 52
19.100 0.500 -0.300 209 0 45
19.100 0.500 1.700 234 0 20
19.100 0.500 1.900 198 0 56
19.100 0.700 -0.300 206 0 48
19.100 0.700 1.700 229 0 25
19.100 0.700 1.900 199 0 55
19.100 0.900 -0.300 200 0 54
19.100 0.900 1.700 229 0 25
19.100 0.900 1.900 193 0 61
19.100 1.100 -0.300 201 0 53
19.100 1.100 1.700 245 0 9
19.100 1.100 1.900 186 0 68
19.100 1.300 -0.300 197 0 57
19.100 1.300 1.700 255 0 0
19.100 1.300 1.900 199 0 55
19.100 1.500 -0.300 181 0 73
19.100 1.500 1.700 220 0 34
19.100 1.500 1.900 210 0 44
19.100 1.700 -0.300 164 0 90
19.100 1.700 1.700 224 0 30
19.100 1.700 1.900 222 0 32
19.300 -0.700 -0.300 0 0 255
19.300 -0.700 -0.100 0 0 255
19.300 -0.700 0.100 0 0 255
19.300 -0.700 0.300 9 0 245
19.300 -0.700 0.500 19 0 235
19.300 -0.700 0.700 27 0 227
19.300 -0.700 0.900 170 0 84
19.300 -0.700 1.100 171 0 83
19.300 -0.700 1.300 163 0 91
19.300 -0.700 1.500 166 0 88
19.300 -0.700 1.700 166 0 88
19.300 -0.700 1.900 155 0 99
19.300 -0.500 -0.300 158 0 96
19.300 -0.500 1.700 188 0 66
19.300 -0.500 1.900 190 0 64
19.300 -0.300 -0.300 179 0 75
19.300 -0.300 1.700 201 0 53
19.300 -0.300 1.900 203 0 51
19.300 -0.100 -0.300 193 0 61
19.300 -0.100 1.700 229 0 25
19.300 -0.100 1.900 215 0 39
19.300 0.100 -0.300 203 0 51
19.300 0.100 1.700 232 0 22
19.300 0.100 1.900 220 0 34
19.300 0.300 -0.300 210 0 44
19.300 0.300 1.700 238 0 16
19.300 0.300 1.900 224 0 30
19.300 0.500 -0.300 210 0 44
19.300 0.500 1.700 237 0 17
19.300 0.500 1.900 222 0 32
19.300 0.700 -0.300 208 0 46
19.300 0.700 1.700 244 0 10
19.300 0.700 1.900 233 0 21
19.300 0.900 -0.300 201 0 53
19.300 0.900 1.700 246 0 8
19.300 0.900 1.900 241 0 13
19.300 1.100 -0.300 187 0 67
19.300 1.100 1.700 246 0 8
19.300 1.100 1.900 242 0 12
19.300 1.300 -0.300 183 0 71
19.300 1.300 1.700 240 0 14
19.300 1.300 1.900 230 0 24
19.300 1.500 -0.300 171 0 83
19.300 1.500 1.700 198 0 56
19.300 1.500 1.900 222 0 32
19.300 1.700 -0.300 155 0 99
19.300 1.700 1.700 184 0 70
19.300 1.700 1.900 204 0 50
19.500 -0.700 -0.300 0 0 255
19.500 -0.700 -0.100 0 0 255
19.500 -0.700 0.100 0 0 255
19.500 -0.700 0.300 9 0 245
19.500 -0.700 0.500 16 0 238
19.500 -0.700 0.700 26 0 228
19.500 -0.700 0.900 170 0 84
19.500 -0.700 1.100 166 0 88
19.500 -0.700 1.300 161 0 93
19.500 -0.700 1.500 164 0 90
19.500 -0.700 1.700 162 0 92
19.500 -0.700 1.900 178 0 76
19.500 -0.500 -0.300 164 0 90
19.500 -0.500 1.700 184 0 70
19.500 -0.500 1.900 190 0 64
19.500 -0.300 -0.300 182 0 72
19.500 -0.300 1.700 196 0 58
19.500 -0.300 1.900 206 0 48
19.500 -0.100 -0.300 192 0 62
19.500 -0.100 1.700 222 0 32
19.500 -0.100 1.900 207 0 47
19.500 0.100 -0.300 199 0 55
19.500 0.100 1.700 216 0 38
19.500 0.100 1.900 226 0 28
19.500 0.300 -0.300 203 0 51
19.500 0.300 1.700 210 0 44
19.500 0.300 1.900 226 0 28
19.500 0.500 -0.300 206 0 48
19.500 0.500 1.700 217 0 37
19.500 0.500 1.900 238 0 16
19.500 0.700 -0.300 201 0 53
19.500 0.700 1.700 219 0 35
19.500 0.700 1.900 223 0 31
19.500 0.900 -0.300 191 0 63
19.500 0.900 1.700 213 0 41
19.500 0.900 1.900 214 0 40
19.500 1.100 -0.300 197 0 57
19.500 1.100 1.700 213 0 41
19.500 1.100 1.900 204 0 50
19.500 1.300 -0.300 190 0 64
19.500 1.300 1.700 204 0 50
19.500 1.300 1.900 212 0 42
19.500 1.500 -0.300 177 0 77
19.500 1.500 1.700 211 0 43
19.500 1.500 1.900 193 0 61
19.500 1.700 -0.300 170 0 84
19.500 1.700 1.700 192 0 62
19.500 1.700 1.900 197 0 57
19.700 -0.700 -0.300 0 0 255
19.700 -0.700 -0.100 0 0 255
19.700 -0.700 0.100 0 0 255
19.700 -0.700 0.300 6 0 248
19.700 -0.700 0.500 15 0 239
19.700 -0.700 0.700 26 0 228
19.700 -0.700 0.900 175 0 79
19.700 -0.700 1.100 167 0 87
19.700 -0.700 1.300 168 0 86
19.700 -0.700 1.500 163 0 91
19.700 -0.700 1.700 165 0 89
19.700 -0.700 1.900 171 0 83
19.700 -0.500 -0.300 162 0 92
19.700 -0.500 1.700 208 0 46
19.700 -0.500 1.900 206 0 48
19.700 -0.300 -0.300 175 0 79
19.700 -0.300 1.700 240 0 14
19.700 -0.300 1.900 226 0 28
19.700 -0.100 -0.300 186 0 68
19.700 -0.100 1.700 219 0 35
19.700 -0.100 1.900 236 0 18
19.700 0.100 -0.300 193 0 61
19.700 0.100 1.700 253 0 1
19.700 0.100 1.900 232 0 22
19.700 0.300 -0.300 199 0 55
19.700 0.300 1.700 240 0 14
19.700 0.300 1.900 222 0 32
19.700 0.500 -0.300 207 0 47
19.700 0.500 1.700 250 0 4
19.700 0.500 1.900 220 0 34
19.700 0.700 -0.300 197 0 57
19.700 0.700 1.700 237 0 17
19.700 0.700 1.900 231 0 23
19.700 0.900 -0.300 192 0 62
19.700 0.900 1.700 231 0 23
19.700 0.900 1.900 216 0 38
19.700 1.100 -0.300 190 0 64
19.700 1.100 1.700 233 0 21
19.700 1.100 1.900 215 0 39
19.700 1.300 -0.300 182 0 72
19.700 1.300 1.700 242 0 12
19.700 1.300 1.900 223 0 31
19.700 1.500 -0.300 177 0 77
19.700 1.500 1.700 224 0 30
19.700 1.500 1.900 214 0 40
19.700 1.700 -0.300 168 0 86
19.700 1.700 1.700 226 0 28
19.700 1.700 1.900 220 0 34
19.900 -0.700 -0.300 0 0 255
19.900 -0.700 -0.100 0 0 255
19.900 -0.700 0.100 0 0 255
19.900 -0.700 0.300 6 0 248
19.900 -0.700 0.500 14 0 240
19.900 -0.700 0.700 25 0 229
19.900 -0.700 0.900 173 0 81
19.900 -0.700 1.100 169 0 85
19.900 -0.700 1.300 167 0 87
19.900 -0.700 1.500 163 0 91
19.900 -0.700 1.700 167 0 87
19.900 -0.700 1.900 122 0 132
19.900 -0.500 -0.300 158 0 96
19.900 -0.500 -0.100 136 0 118
19.900 -0.500 0.100 143 0 111
19.900 -0.500 1.700 178 0 76
19.900 -0.500 1.900 196 0 58
19.900 -0.300 -0.300 175 0 79
19.900 -0.300 1.700 215 0 39
19.900 -0.300 1.900 198 0 56
19.900 -0.100 -0.300 177 0 77
19.900 -0.100 1.700 205 0 49
19.900 -0.100 1.900 193 0 61
19.900 0.100 -0.300 190 0 64
19.900 0.100 1.700 194 0 60
19.900 0.100 1.900 215 0 39
19.900 0.300 -0.300 202 0 52
19.900 0.300 1.700 198 0 56
19.900 0.300 1.900 220 0 34
19.900 0.500 -0.300 207 0 47
19.900 0.500 1.700 210 0 44
19.900 0.500 1.900 221 0 33
19.900 0.700 -0.300 205 0 49
19.900 0.700 1.700 225 0 29
19.900 0.700 1.900 223 0 31
19.900 0.900 -0.300 200 0 54
19.900 0.900 1.700 225 0 29
19.900 0.900 1.900 215 0 39
19.900 1.100 -0.300 198 0 56
19.900 1.100 1.700 212 0 42
19.900 1.100 1.900 236 0 18
19.900 1.300 -0.300 197 0 57
19.900 1.300 1.700 219 0 35
19.900 1.300 1.900 225 0 29
19.900 1.500 -0.300 180 0 74
19.900 1.500 1.700 221 0 33
19.900 1.500 1.900 211 0 43
19.900 1.700 -0.300 162 0 92
19.900 1.700 1.700 213 0 41
19.900 1.700 1.900 214 0 40
20.100 -0.700 -0.300 0 0 255
20.100 -0.700 -0.100 0 0 255
20.100 -0.700 0.100 0 0 255
20.100 -0.700 0.300 6 0 248
20.100 -0.700 0.500 16 0 238
20.100 -0.700 0.700 25 0 229
20.100 -0.700 0.900 181 0 73
20.100 -0.700 1.100 170 0 84
20.100 -0.700 1.300 161 0 93
20.100 -0.700 1.500 165 0 89
20.100 -0.700 1.700 156 0 98
20.100 -0.500 -0.300 158 0 96
20.100 -0.500 -0.100 139 0 115
20.100 -0.500 0.100 144 0 110
20.100 -0.500 1.700 195 0 59
20.100 -0.500 1.900 194 0 60
20.100 -0.300 -0.300 173 0 81
20.100 -0.300 1.700 199 0 55
20.100 -0.300 1.900 209 0 45
20.100 -0.100 -0.300 181 0 73
20.100 -0.100 1.700 222 0 32
20.100 -0.100 1.900 208 0 46
20.100 0.100 -0.300 192 0 62
20.100 0.100 1.700 214 0 40
20.100 0.100 1.900 219 0 35
20.100 0.300 -0.300 202 0 52
20.100 0.300 1.700 220 0 34
20.100 0.300 1.900 211 0 43
20.100 0.500 -0.300 209 0 45
20.100 0.500 1.700 222 0 32
20.100 0.500 1.900 204 0 50
20.100 0.700 -0.300 211 0 43
20.100 0.700 1.700 239 0 15
20.100 0.700 1.900 203 0 51
20.100 0.900 -0.300 206 0 48
20.100 0.900 1.700 229 0 25
20.100 0.900 1.900 210 0 44
20.100 1.100 -0.300 195 0 59
20.100 1.100 1.700 248 0 6
20.100 1.100 1.900 205 0 49
20.100 1.300 -0.300 187 0 67
20.100 1.300 1.700 235 0 19
20.100 1.300 1.900 211 0 43
20.100 1.500 -0.300 181 0 73
20.100 1.500 1.700 242 0 12
20.100 1.500 1.900 203 0 51
20.100 1.700 -0.300 170 0 84
20.100 1.700 1.700 244 0 10
20.100 1.700 1.900 204 0 50
20.300 -0.700 -0.300 0 0 255
20.300 -0.700 -0.100 0 0 255
20.300 -0.700 0.100 0 0 255
20.300 -0.700 0.300 7 0 247
20.300 -0.700 0.500 17 0 237
20.300 -0.700 0.700 27 0 227
20.300 -0.700 0.900 180 0 74
20.300 -0.700 1.100 173 0 81
20.300 -0.700 1.300 165 0 89
20.300 -0.700 1.500 164 0 90
20.300 -0.700 1.700 169 0 85
20.300 -0.700 1.900 198 0 56
20.300 -0.500 -0.300 157 0 97
20.300 -0.500 -0.100 148 0 106
20.300 -0.500 0.100 159 0 95
20.300 -0.500 0.300 169 0 85
20.300 -0.500 0.500 137 0 117
20.300 -0.500 0.700 191 0 63
20.300 -0.500 1.700 209 0 45
20.300 -0.500 1.900 206 0 48
20.300 -0.300 -0.300 175 0 79
20.300 -0.300 1.700 242 0 12
20.300 -0.300 1.900 209 0 45
20.300 -0.100 -0.300 181 0 73
20.300 -0.100 1.700 232 0 22
20.300 -0.100 1.900 211 0 43
20.300 0.100 -0.300 196 0 58
20.300 0.100 1.700 245 0 9
20.300 0.100 1.900 225 0 29
20.300 0.300 -0.300 201 0 53
20.300 0.300 1.700 241 0 13
20.300 0.300 1.900 211 0 43
20.300 0.500 -0.300 205 0 49
20.300 0.500 1.700 245 0 9
20.300 0.500 1.900 206 0 48
20.300 0.700 -0.300 202 0 52
20.300 0.700 1.700 249 0 5
20.300 0.700 1.900 212 0 42
20.300 0.900 -0.300 193 0 61
20.300 0.900 1.700 255 0 0
20.300 0.900 1.900 203 0 51
20.300 1.100 -0.300 195 0 59
20.300 1.100 1.700 248 0 6
20.300 1.100 1.900 209 0 45
20.300 1.300 -0.300 189 0 65
20.300 1.300 1.700 238 0 16
20.300 1.300 1.900 224 0 30
20.300 1.500 -0.300 185 0 69
20.300 1.500 1.700 233 0 21
20.300 1.500 1.900 217 0 37
20.300 1.700 -0.300 180 0 74
20.300 1.700 1.700 220 0 34
20.300 1.700 1.900 213 0 41
20.500 -0.700 -0.300 0 0 255
20.500 -0.700 -0.100 0 0 255
20.500 -0.700 0.100 2 0 252
20.500 -0.700 0.300 9 0 245
20.500 -0.700 0.500 23 0 231
20.500 -0.700 0.700 29 0 225
20.500 -0.700 0.900 43 0 211
20.500 -0.700 1.100 174 0 80
20.500 -0.700 1.300 167 0 87
20.500 -0.700 1.500 163 0 91
20.500 -0.700 1.700 165 0 89
20.500 -0.500 -0.300 157 0 97
20.500 -0.500 -0.100 154 0 100
20.500 -0.500 0.100 171 0 83
20.500 -0.500 0.300 179 0 75
20.500 -0.500 0.500 187 0 67
20.500 -0.500 0.700 180 0 74
20.500 -0.500 1.500 162 0 92
20.500 -0.500 1.700 182 0 72
20.500 -0.500 1.900 209 0 45
20.500 -0.300 -0.300 174 0 80
20.500 -0.300 1.700 225 0 29
20.500 -0.300 1.900 223 0 31
20.500 -0.100 -0.300 188 0 66
20.500 -0.100 1.700 217 0 37
20.500 -0.100 1.900 235 0 19
20.500 0.100 -0.300 196 0 58
20.500 0.100 1.700 233 0 21
20.500 0.100 1.900 233 0 21
20.500 0.300 -0.300 200 0 54
20.500 0.300 1.700 243 0 11
20.500 0.300 1.900 228 0 26
20.500 0.500 -0.300 206 0 48
20.500 0.500 1.700 231 0 23
20.500 0.500 1.900 227 0 27
20.500 0.700 -0.300 203 0 51
20.500 0.700 1.700 235 0 19
20.500 0.700 1.900 226 0 28
20.500 0.900 -0.300 198 0 56
20.500 0.900 1.700 218 0 36
20.500 0.900 1.900 230 0 24
20.500 1.100 -0.300 198 0 56
20.500 1.100 1.700 221 0 33
20.500 1.100 1.900 237 0 17
20.500 1.300 -0.300 194 0 60
20.500 1.300 1.700 216 0 38
20.500 1.300 1.900 239 0 15
20.500 1.500 -0.300 187 0 67
20.500 1.500 1.700 202 0 52
20.500 1.500 1.900 233 0 21
20.500 1.700 -0.300 177 0 77
20.500 1.700 1.700 198 0 56
20.500 1.700 1.900 223 0 31
20.700 -0.700 -0.300 6 0 248
20.700 -0.700 -0.100 0 0 255
20.700 -0.700 0.100 4 0 250
20.700 -0.700 0.300 11 0 243
20.700 -0.700 0.500 23 0 231
20.700 -0.700 0.700 33 0 221
20.700 -0.700 0.900 45 0 209
20.700 -0.700 1.100 180 0 74
20.700 -0.700 1.300 167 0 87
20.700 -0.700 1.500 166 0 88
20.700 -0.700 1.700 172 0 82
20.700 -0.500 -0.300 162 0 92
20.700 -0.500 -0.100 161 0 93
20.700 -0.500 0.100 175 0 79
20.700 -0.500 0.300 181 0 73
20.700 -0.500 0.500 195 0 59
20.700 -0.500 0.700 195 0 59
20.700 -0.500 0.900 224 0 30
20.700 -0.500 1.100 249 0 5
20.700 -0.500 1.300 167 0 87
20.700 -0.500 1.500 168 0 86
20.700 -0.500 1.700 182 0 72
20.700 -0.500 1.900 205 0 49
20.700 -0.300 -0.300 165 0 89
20.700 -0.300 1.700 190 0 64
20.700 -0.300 1.900 198 0 56
20.700 -0.100 -0.300 173 0 81
20.700 -0.100 1.700 198 0 56
20.700 -0.100 1.900 207 0 47
20.700 0.100 -0.300 193 0 61
20.700 0.100 1.700 197 0 57
20.700 0.100 1.900 226 0 28
20.700 0.300 -0.300 203 0 51
20.700 0.300 1.700 204 0 50
20.700 0.300 1.900 226 0 28
20.700 0.500 -0.300 208 0 46
20.700 0.500 1.700 207 0 47
20.700 0.500 1.900 236 0 18
20.700 0.700 -0.300 210 0 44
20.700 0.700 1.700 206 0 48
20.700 0.700 1.900 229 0 25
20.700 0.900 -0.300 202 0 52
20.700 0.900 1.700 212 0 42
20.700 0.900 1.900 229 0 25
20.700 1.100 -0.300 201 0 53
20.700 1.100 1.700 218 0 36
20.700 1.100 1.900 213 0 41
20.700 1.300 -0.300 194 0 60
20.700 1.300 1.700 220 0 34
20.700 1.300 1.900 203 0 51
20.700 1.500 -0.300 200 0 54
20.700 1.500 1.700 209 0 45
20.700 1.500 1.900 216 0 38
20.700 1.700 -0.300 196 0 58
20.700 1.700 1.700 209 0 45
20.700 1.700 1.900 206 0 48
20.900 -0.700 -0.300 8 0 246
20.900 -0.700 -0.100 144 0 110
20.900 -0.700 0.100 7 0 247
20.900 -0.700 0.300 12 0 242
20.900 -0.700 0.500 21 0 233
20.900 -0.700 0.700 30 0 224
20.900 -0.700 0.900 43 0 211
20.900 -0.700 1.100 189 0 65
20.900 -0.700 1.300 171 0 83
20.900 -0.700 1.500 158 0 96
20.900 -0.700 1.700 155 0 99
20.900 -0.500 -0.300 163 0 91
20.900 -0.500 -0.100 159 0 95
20.900 -0.500 0.100 175 0 79
20.900 -0.500 0.300 186 0 68
20.900 -0.500 0.500 193 0 61
20.900 -0.500 0.700 199 0 55
20.900 -0.500 0.900 212 0 42
20.900 -0.500 1.100 216 0 38
20.900 -0.500 1.300 181 0 73
20.900 -0.500 1.500 185 0 69
20.900 -0.500 1.700 203 0 51
20.900 -0.500 1.900 192 0 62
20.900 -0.300 -0.300 171 0 83
20.900 -0.300 1.700 207 0 47
20.900 -0.300 1.900 205 0 49
20.900 -0.100 -0.300 181 0 73
20.900 -0.100 1.700 199 0 55
20.900 -0.100 1.900 207 0 47
20.900 0.100 -0.300 185 0 69
20.900 0.100 1.700 207 0 47
20.900 0.100 1.900 220 0 34
20.900 0.300 -0.300 196 0 58
20.900 0.300 1.700 199 0 55
20.900 0.300 1.900 219 0 35
20.900 0.500 -0.300 202 0 52
20.900 0.500 1.700 207 0 47
20.900 0.500 1.900 219 0 35
20.900 0.700 -0.300 205 0 49
20.900 0.700 1.700 216 0 38
20.900 0.700 1.900 211 0 43
20.900 0.900 -0.300 206 0 48
20.900 0.900 1.700 220 0 34
20.900 0.900 1.900 217 0 37
20.900 1.100 -0.300 208 0 46
20.900 1.100 1.700 219 0 35
20.900 1.100 1.900 206 0 48
20.900 1.300 -0.300 202 0 52
20.900 1.300 1.700 225 0 29
20.900 1.300 1.900 206 0 48
20.900 1.500 -0.300 200 0 54
20.900 1.500 1.700 215 0 39
20.900 1.500 1.900 209 0 45
20.900 1.700 -0.300 184 0 70
20.900 1.700 1.700 219 0 35
20.900 1.700 1.900 203 0 51
21.100 -0.700 -0.100 148 0 106
21.100 -0.700 0.100 155 0 99
21.100 -0.700 0.300 162 0 92
21.100 -0.700 0.500 19 0 235
21.100 -0.700 0.700 181 0 73
21.100 -0.700 0.900 178 0 76
21.100 -0.700 1.100 182 0 72
21.100 -0.700 1.300 166 0 88
21.100 -0.700 1.500 170 0 84
21.100 -0.700 1.700 175 0 79
21.100 -0.500 -0.300 164 0 90
21.100 -0.500 -0.100 161 0 93
21.100 -0.500 0.100 175 0 79
21.100 -0.500 0.300 182 0 72
21.100 -0.500 0.500 197 0 57
21.100 -0.500 0.700 202 0 52
21.100 -0.500 0.900 214 0 40
21.100 -0.500 1.100 221 0 33
21.100 -0.500 1.300 201 0 53
21.100 -0.500 1.500 193 0 61
21.100 -0.500 1.700 213 0 41
21.100 -0.500 1.900 206 0 48
21.100 -0.300 -0.300 173 0 81
21.100 -0.300 1.700 211 0 43
21.100 -0.300 1.900 194 0 60
21.100 -0.100 -0.300 176 0 78
21.100 -0.100 1.700 213 0 41
21.100 -0.100 1.900 194 0 60
21.100 0.100 -0.300 185 0 69
21.100 0.100 1.700 221 0 33
21.100 0.100 1.900 205 0 49
21.100 0.300 -0.300 190 0 64
21.100 0.300 1.700 218 0 36
21.100 0.300 1.900 192 0 62
21.100 0.500 -0.300 200 0 54
21.100 0.500 1.700 217 0 37
21.100 0.500 1.900 188 0 66
21.100 0.700 -0.300 203 0 51
21.100 0.700 1.700 214 0 40
21.100 0.700 1.900 196 0 58
21.100 0.900 -0.300 203 0 51
21.100 0.900 1.700 184 0 70
21.100 0.900 1.900 204 0 50
21.100 1.100 -0.300 197 0 57
21.100 1.100 1.700 207 0 47
21.100 1.100 1.900 202 0 52
21.100 1.300 -0.300 194 0 60
21.100 1.300 1.700 237 0 17
21.100 1.300 1.900 217 0 37
21.100 1.500 -0.300 182 0 72
21.100 1.500 1.700 228 0 26
21.100 1.500 1.900 224 0 30
21.100 1.700 -0.300 178 0 76
21.100 1.700 1.700 218 0 36
21.100 1.700 1.900 229 0 25
21.300 -0.700 -0.100 0 0 255
21.300 -0.700 0.100 136 0 118
21.300 -0.700 0.300 10 0 244
21.300 -0.700 0.500 153 0 101
21.300 -0.700 0.700 168 0 86
21.300 -0.700 0.900 179 0 75
21.300 -0.700 1.100 175 0 79
21.300 -0.700 1.300 172 0 82
21.300 -0.700 1.500 155 0 99
21.300 -0.700 1.700 168 0 86
21.300 -0.500 -0.300 167 0 87
21.300 -0.500 -0.100 164 0 90
21.300 -0.500 0.100 175 0 79
21.300 -0.500 0.300 185 0 69
21.300 -0.500 0.500 194 0 60
21.300 -0.500 0.700 203 0 51
21.300 -0.500 0.900 210 0 44
21.300 -0.500 1.100 229 0 25
21.300 -0.500 1.300 205 0 49
21.300 -0.500 1.500 201 0 53
21.300 -0.500 1.700 197 0 57
21.300 -0.500 1.900 206 0 48
21.300 -0.300 -0.300 174 0 80
21.300 -0.300 1.700 200 0 54
21.300 -0.300 1.900 216 0 38
21.300 -0.100 -0.300 175 0 79
21.300 -0.100 1.700 199 0 55
21.300 -0.100 1.900 209 0 45
21.300 0.100 -0.300 182 0 72
21.300 0.100 1.700 231 0 23
21.300 0.100 1.900 194 0 60
21.300 0.300 -0.300 196 0 58
21.300 0.300 1.700 223 0 31
21.300 0.300 1.900 202 0 52
21.300 0.500 -0.300 201 0 53
21.300 0.500 1.700 229 0 25
21.300 0.500 1.900 202 0 52
21.300 0.700 -0.300 208 0 46
21.300 0.700 1.700 240 0 14
21.300 0.700 1.900 196 0 58
21.300 0.900 -0.300 207 0 47
21.300 0.900 1.700 232 0 22
21.300 0.900 1.900 212 0 42
21.300 1.100 -0.300 207 0 47
21.300 1.100 1.700 230 0 24
21.300 1.100 1.900 209 0 45
21.300 1.300 -0.300 198 0 56
21.300 1.300 1.700 231 0 23
21.300 1.300 1.900 208 0 46
21.300 1.500 -0.300 183 0 71
21.300 1.500 1.700 213 0 41
21.300 1.500 1.900 208 0 46
21.300 1.700 -0.300 173 0 81
21.300 1.700 1.700 205 0 49
21.300 1.700 1.900 225 0 29
21.500 -0.700 0.100 0 0 255
21.500 -0.700 0.300 22 0 232
21.500 -0.700 0.500 4 0 250
21.500 -0.700 0.700 164 0 90
21.500 -0.700 0.900 154 0 100
21.500 -0.700 1.100 163 0 91
21.500 -0.700 1.300 166 0 88
21.500 -0.700 1.500 149 0 105
21.500 -0.700 1.700 142 0 112
21.500 -0.500 -0.300 168 0 86
21.500 -0.500 -0.100 165 0 89
21.500 -0.500 0.100 180 0 74
21.500 -0.500 0.300 189 0 65
21.500 -0.500 0.500 195 0 59
21.500 -0.500 0.700 201 0 53
21.500 -0.500 0.900 214 0 40
21.500 -0.500 1.100 221 0 33
21.500 -0.500 1.300 208 0 46
21.500 -0.500 1.500 197 0 57
21.500 -0.500 1.700 205 0 49
21.500 -0.500 1.900 218 0 36
21.500 -0.300 -0.300 174 0 80
21.500 -0.300 1.700 222 0 32
21.500 -0.300 1.900 221 0 33
21.500 -0.100 -0.300 188 0 66
21.500 -0.100 1.700 241 0 13
21.500 -0.100 1.900 209 0 45
21.500 0.100 -0.300 202 0 52
21.500 0.100 1.700 240 0 14
21.500 0.100 1.900 229 0 25
21.500 0.300 -0.300 201 0 53
21.500 0.300 1.700 242 0 12
21.500 0.300 1.900 222 0 32
21.500 0.500 -0.300 208 0 46
21.500 0.500 1.700 246 0 8
21.500 0.500 1.900 205 0 49
21.500 0.700 -0.300 209 0 45
21.500 0.700 1.700 250 0 4
21.500 0.700 1.900 222 0 32
21.500 0.900 -0.300 203 0 51
21.500 0.900 1.700 244 0 10
21.500 0.900 1.900 217 0 37
21.500 1.100 -0.300 193 0 61
21.500 1.100 1.700 238 0 16
21.500 1.100 1.900 214 0 40
21.500 1.300 -0.300 190 0 64
21.500 1.300 1.700 243 0 11
21.500 1.300 1.900 215 0 39
21.500 1.500 -0.300 186 0 68
21.500 1.500 1.700 246 0 8
21.500 1.500 1.900 223 0 31
21.500 1.700 -0.300 178 0 76
21.500 1.700 1.700 233 0 21
21.500 1.700 1.900 204 0 50
21.700 -0.700 0.100 12 0 242
21.700 -0.700 0.300 0 0 255
21.700 -0.700 0.500 9 0 245
21.700 -0.700 0.700 127 0 127
21.700 -0.700 0.900 159 0 95
21.700 -0.700 1.100 159 0 95
21.700 -0.700 1.300 145 0 109
21.700 -0.700 1.500 173 0 81
21.700 -0.500 -0.300 170 0 84
21.700 -0.500 -0.100 165 0 89
21.700 -0.500 0.100 180 0 74
21.700 -0.500 0.300 189 0 65
21.700 -0.500 0.500 195 0 59
21.700 -0.500 0.700 206 0 48
21.700 -0.500 0.900 216 0 38
21.700 -0.500 1.100 226 0 28
21.700 -0.500 1.300 210 0 44
21.700 -0.500 1.500 196 0 58
21.700 -0.500 1.700 199 0 55
21.700 -0.500 1.900 209 0 45
21.700 -0.300 -0.300 185 0 69
21.700 -0.300 1.700 221 0 33
21.700 -0.300 1.900 210 0 44
21.700 -0.100 -0.300 192 0 62
21.700 -0.100 1.700 221 0 33
21.700 -0.100 1.900 218 0 36
21.700 0.100 -0.300 197 0 57
21.700 0.100 1.700 231 0 23
21.700 0.100 1.900 242 0 12
21.700 0.300 -0.300 207 0 47
21.700 0.300 1.700 228 0 26
21.700 0.300 1.900 252 0 2
21.700 0.500 -0.300 208 0 46
21.700 0.500 1.700 225 0 29
21.700 0.500 1.900 244 0 10
21.700 0.700 -0.300 205 0 49
21.700 0.700 1.700 222 0 32
21.700 0.700 1.900 255 0 0
21.700 0.900 -0.300 198 0 56
21.700 0.900 1.700 219 0 35
21.700 0.900 1.900 255 0 0
21.700 1.100 -0.300 194 0 60
21.700 1.100 1.700 226 0 28
21.700 1.100 1.900 255 0 0
21.700 1.300 -0.300 193 0 61
21.700 1.300 1.700 234 0 20
21.700 1.300 1.900 248 0 6
21.700 1.500 -0.300 180 0 74
21.700 1.500 1.700 230 0 24
21.700 1.500 1.900 241 0 13
21.700 1.700 -0.300 180 0 74
21.700 1.700 1.700 223 0 31
21.700 1.700 1.900 232 0 22
21.900 -0.500 -0.300 172 0 82
21.900 -0.500 -0.100 173 0 81
21.900 -0.500 0.100 183 0 71
21.900 -0.500 0.300 191 0 63
21.900 -0.500 0.500 202 0 52
21.900 -0.500 0.700 205 0 49
21.900 -0.500 0.900 207 0 47
21.900 -0.500 1.100 235 0 19
21.900 -0.500 1.300 219 0 35
21.900 -0.500 1.500 198 0 56
21.900 -0.500 1.700 194 0 60
21.900 -0.500 1.900 232 0 22
21.900 -0.300 -0.300 179 0 75
21.900 -0.300 -0.100 175 0 79
21.900 -0.300 0.100 185 0 69
21.900 -0.300 0.300 194 0 60
21.900 -0.300 0.500 205 0 49
21.900 -0.300 0.700 211 0 43
21.900 -0.300 0.900 198 0 56
21.900 -0.300 1.700 210 0 44
21.900 -0.300 1.900 227 0 27
21.900 -0.100 -0.300 193 0 61
21.900 -0.100 0.100 166 0 88
21.900 -0.100 0.300 157 0 97
21.900 -0.100 1.700 216 0 38
21.900 -0.100 1.900 223 0 31
21.900 0.100 -0.300 203 0 51
21.900 0.100 0.100 165 0 89
21.900 0.100 0.300 157 0 97
21.900 0.100 1.700 215 0 39
21.900 0.100 1.900 238 0 16
21.900 0.300 -0.300 209 0 45
21.900 0.300 0.100 173 0 81
21.900 0.300 1.700 227 0 27
21.900 0.300 1.900 209 0 45
21.900 0.500 -0.300 205 0 49
21.900 0.500 1.700 219 0 35
21.900 0.500 1.900 208 0 46
21.900 0.700 -0.300 203 0 51
21.900 0.700 1.700 230 0 24
21.900 0.700 1.900 219 0 35
21.900 0.900 -0.300 198 0 56
21.900 0.900 1.700 240 0 14
21.900 0.900 1.900 215 0 39
21.900 1.100 -0.300 200 0 54
21.900 1.100 1.700 232 0 22
21.900 1.100 1.900 228 0 26
21.900 1.300 -0.300 189 0 65
21.900 1.300 1.700 241 0 13
21.900 1.300 1.900 219 0 35
21.900 1.500 -0.300 187 0 67
21.900 1.500 1.700 232 0 22
21.900 1.500 1.900 227 0 27
21.900 1.700 -0.300 188 0 66
21.900 1.700 1.700 220 0 34
21.900 1.700 1.900 229 0 25
22.100 -0.700 1.700 126 0 128
22.100 -0.500 -0.300 172 0 82
22.100 -0.500 -0.100 170 0 84
22.100 -0.500 0.100 181 0 73
22.100 -0.500 0.300 187 0 67
22.100 -0.500 0.500 186 0 68
22.100 -0.500 0.700 201 0 53
22.100 -0.500 0.900 211 0 43
22.100 -0.500 1.100 222 0 32
22.100 -0.500 1.300 215 0 39
22.100 -0.500 1.500 205 0 49
22.100 -0.500 1.700 213 0 41
22.100 -0.500 1.900 200 0 54
22.100 -0.300 -0.300 179 0 75
22.100 -0.300 -0.100 176 0 78
22.100 -0.300 0.100 191 0 63
22.100 -0.300 0.300 197 0 57
22.100 -0.300 0.500 209 0 45
22.100 -0.300 0.700 210 0 44
22.100 -0.300 0.900 226 0 28
22.100 -0.300 1.100 237 0 17
22.100 -0.300 1.300 220 0 34
22.100 -0.300 1.500 219 0 35
22.100 -0.300 1.700 215 0 39
22.100 -0.300 1.900 210 0 44
22.100 -0.100 -0.300 182 0 72
22.100 -0.100 1.700 223 0 31
22.100 -0.100 1.900 211 0 43
22.100 0.100 -0.300 205 0 49
22.100 0.100 1.700 222 0 32
22.100 0.100 1.900 228 0 26
22.100 0.300 -0.300 200 0 54
22.100 0.300 1.700 208 0 46
22.100 0.300 1.900 236 0 18
22.100 0.500 -0.300 208 0 46
22.100 0.500 1.700 212 0 42
22.100 0.500 1.900 241 0 13
22.100 0.700 -0.300 205 0 49
22.100 0.700 1.700 234 0 20
22.100 0.700 1.900 241 0 13
22.100 0.900 -0.300 200 0 54
22.100 0.900 1.700 239 0 15
22.100 0.900 1.900 228 0 26
22.100 1.100 -0.300 193 0 61
22.100 1.100 1.700 239 0 15
22.100 1.100 1.900 221 0 33
22.100 1.300 -0.300 186 0 68
22.100 1.300 1.700 242 0 12
22.100 1.300 1.900 231 0 23
22.100 1.500 -0.300 191 0 63
22.100 1.500 1.700 255 0 0
22.100 1.500 1.900 236 0 18
22.100 1.700 -0.300 205 0 49
22.100 1.700 1.700 252 0 2
22.100 1.700 1.900 226 0 28
22.300 -0.700 1.500 218 0 36
22.300 -0.700 1.700 187 0 67
22.300 -0.700 1.900 151 0 103
22.300 -0.500 -0.300 167 0 87
22.300 -0.500 -0.100 170 0 84
22.300 -0.500 0.100 174 0 80
22.300 -0.500 0.300 191 0 63
22.300 -0.500 0.500 165 0 89
22.300 -0.500 0.700 201 0 53
22.300 -0.500 0.900 221 0 33
22.300 -0.500 1.100 239 0 15
22.300 -0.500 1.300 226 0 28
22.300 -0.500 1.500 197 0 57
22.300 -0.500 1.700 200 0 54
22.300 -0.500 1.900 225 0 29
22.300 -0.300 -0.300 168 0 86
22.300 -0.300 -0.100 176 0 78
22.300 -0.300 0.100 193 0 61
22.300 -0.300 0.300 199 0 55
22.300 -0.300 0.500 202 0 52
22.300 -0.300 0.700 219 0 35
22.300 -0.300 0.900 208 0 46
22.300 -0.300 1.100 219 0 35
22.300 -0.300 1.300 222 0 32
22.300 -0.300 1.500 244 0 10
22.300 -0.300 1.700 216 0 38
22.300 -0.300 1.900 225 0 29
22.300 -0.100 -0.300 183 0 71
22.300 -0.100 -0.100 171 0 83
22.300 -0.100 0.500 162 0 92
22.300 -0.100 1.700 218 0 36
22.300 -0.100 1.900 221 0 33
22.300 0.100 -0.300 186 0 68
22.300 0.100 -0.100 177 0 77
22.300 0.100 0.500 153 0 101
22.300 0.100 1.700 232 0 22
22.300 0.100 1.900 211 0 43
22.300 0.300 -0.300 197 0 57
22.300 0.300 -0.100 181 0 73
22.300 0.300 0.500 159 0 95
22.300 0.300 1.700 231 0 23
22.300 0.300 1.900 209 0 45
22.300 0.500 -0.300 209 0 45
22.300 0.500 -0.100 184 0 70
22.300 0.500 0.500 161 0 93
22.300 0.500 1.700 234 0 20
22.300 0.500 1.900 208 0 46
22.300 0.700 -0.300 210 0 44
22.300 0.700 -0.100 182 0 72
22.300 0.700 1.700 234 0 20
22.300 0.700 1.900 208 0 46
22.300 0.900 -0.300 209 0 45
22.300 0.900 1.700 236 0 18
22.300 0.900 1.900 210 0 44
22.300 1.100 -0.300 211 0 43
22.300 1.100 1.700 255 0 0
22.300 1.100 1.900 211 0 43
22.300 1.300 -0.300 212 0 42
22.300 1.300 1.700 255 0 0
22.300 1.300 1.900 220 0 34
22.300 1.500 -0.300 212 0 42
22.300 1.500 1.700 255 0 0
22.300 1.500 1.900 213 0 41
22.300 1.700 -0.300 190 0 64
22.300 1.700 1.700 250 0 4
22.300 1.700 1.900 220 0 34
22.500 -0.700 1.700 178 0 76
22.500 -0.500 -0.300 172 0 82
22.500 -0.500 -0.100 174 0 80
22.500 -0.500 0.100 148 0 106
22.500 -0.500 0.300 145 0 109
22.500 -0.500 0.500 157 0 97
22.500 -0.500 0.700 160 0 94
22.500 -0.500 0.900 230 0 24
22.500 -0.500 1.100 242 0 12
22.500 -0.500 1.300 249 0 5
22.500 -0.500 1.500 210 0 44
22.500 -0.500 1.700 196 0 58
22.500 -0.500 1.900 194 0 60
22.500 -0.300 -0.300 180 0 74
22.500 -0.300 -0.100 175 0 79
22.500 -0.300 0.100 190 0 64
22.500 -0.300 0.300 203 0 51
22.500 -0.300 0.500 207 0 47
22.500 -0.300 0.700 220 0 34
22.500 -0.300 0.900 229 0 25
22.500 -0.300 1.100 236 0 18
22.500 -0.300 1.300 242 0 12
22.500 -0.300 1.700 219 0 35
22.500 -0.300 1.900 205 0 49
22.500 -0.100 -0.300 192 0 62
22.500 -0.100 1.700 234 0 20
22.500 -0.100 1.900 204 0 50
22.500 0.100 -0.300 196 0 58
22.500 0.100 1.700 235 0 19
22.500 0.100 1.900 224 0 30
22.500 0.300 -0.300 202 0 52
22.500 0.300 1.700 224 0 30
22.500 0.300 1.900 248 0 6
22.500 0.500 -0.300 204 0 50
22.500 0.500 1.700 216 0 38
22.500 0.500 1.900 244 0 10
22.500 0.700 -0.300 205 0 49
22.500 0.700 1.700 213 0 41
22.500 0.700 1.900 255 0 0
22.500 0.900 -0.300 206 0 48
22.500 0.900 1.700 214 0 40
22.500 0.900 1.900 255 0 0
22.500 1.100 -0.300 215 0 39
22.500 1.100 1.700 223 0 31
22.500 1.100 1.900 248 0 6
22.500 1.300 -0.300 210 0 44
22.500 1.300 1.700 225 0 29
22.500 1.300 1.900 245 0 9
22.500 1.500 -0.300 207 0 47
22.500 1.500 1.700 233 0 21
22.500 1.500 1.900 252 0 2
22.500 1.700 -0.300 192 0 62
22.500 1.700 1.700 224 0 30
22.500 1.700 1.900 247 0 7
22.700 -0.700 1.700 151 0 103
22.700 -0.500 -0.300 173 0 81
22.700 -0.500 -0.100 176 0 78
22.700 -0.500 0.700 227 0 27
22.700 -0.500 0.900 216 0 38
22.700 -0.500 1.500 196 0 58
22.700 -0.500 1.700 199 0 55
22.700 -0.500 1.900 214 0 40
22.700 -0.300 -0.300 182 0 72
22.700 -0.300 -0.100 228 0 26
22.700 -0.300 0.100 199 0 55
22.700 -0.300 0.500 241 0 13
22.700 -0.300 0.700 154 0 100
22.700 -0.300 1.700 204 0 50
22.700 -0.300 1.900 239 0 15
22.700 -0.100 -0.300 190 0 64
22.700 -0.100 1.700 206 0 48
22.700 -0.100 1.900 220 0 34
22.700 0.100 -0.300 208 0 46
22.700 0.100 1.700 217 0 37
22.700 0.100 1.900 222 0 32
22.700 0.300 -0.300 214 0 40
22.700 0.300 1.700 213 0 41
22.700 0.300 1.900 217 0 37
22.700 0.500 -0.300 215 0 39
22.700 0.500 1.700 222 0 32
22.700 0.500 1.900 209 0 45
22.700 0.700 -0.300 219 0 35
22.700 0.700 1.700 224 0 30
22.700 0.700 1.900 215 0 39
22.700 0.900 -0.300 216 0 38
22.700 0.900 1.700 255 0 0
22.700 0.900 1.900 216 0 38
22.700 1.100 -0.300 204 0 50
22.700 1.100 1.700 231 0 23
22.700 1.100 1.900 212 0 42
22.700 1.300 -0.300 208 0 46
22.700 1.300 1.700 239 0 15
22.700 1.300 1.900 228 0 26
22.700 1.500 -0.300 209 0 45
22.700 1.500 1.700 224 0 30
22.700 1.500 1.900 240 0 14
22.700 1.700 -0.300 187 0 67
22.700 1.700 1.700 205 0 49
22.700 1.700 1.900 234 0 20
22.900 -0.500 -0.300 176 0 78
22.900 -0.500 -0.100 168 0 86
22.900 -0.500 0.700 247 0 7
22.900 -0.500 0.900 222 0 32
22.900 -0.500 1.100 209 0 45
22.900 -0.500 1.300 230 0 24
22.900 -0.500 1.500 225 0 29
22.900 -0.500 1.700 213 0 41
22.900 -0.500 1.900 218 0 36
22.900 -0.300 -0.300 190 0 64
22.900 -0.300 1.700 214 0 40
22.900 -0.300 1.900 220 0 34
22.900 -0.100 -0.300 191 0 63
22.900 -0.100 1.700 204 0 50
22.900 -0.100 1.900 235 0 19
22.900 0.100 -0.300 197 0 57
22.900 0.100 1.700 214 0 40
22.900 0.100 1.900 241 0 13
22.900 0.300 -0.300 203 0 51
22.900 0.300 1.700 219 0 35
22.900 0.300 1.900 242 0 12
22.900 0.500 -0.300 212 0 42
22.900 0.500 1.700 223 0 31
22.900 0.500 1.900 246 0 8
22.900 0.700 -0.300 211 0 43
22.900 0.700 1.700 222 0 32
22.900 0.700 1.900 248 0 6
22.900 0.900 -0.300 217 0 37
22.900 0.900 1.700 229 0 25
22.900 0.900 1.900 254 0 0
22.900 1.100 -0.300 210 0 44
22.900 1.100 1.700 230 0 24
22.900 1.100 1.900 251 0 3
22.900 1.300 -0.300 209 0 45
22.900 1.300 1.700 227 0 27
22.900 1.300 1.900 255 0 0
22.900 1.500 -0.300 190 0 64
22.900 1.500 1.700 230 0 24
22.900 1.500 1.900 255 0 0
22.900 1.700 -0.300 180 0 74
22.900 1.700 1.700 226 0 28
22.900 1.700 1.900 255 0 0
23.100 -0.700 -0.300 2 0 252
23.100 -0.500 -0.300 173 0 81
23.100 -0.500 -0.100 151 0 103
23.100 -0.500 0.100 142 0 112
23.100 -0.500 0.300 204 0 50
23.100 -0.500 0.900 210 0 44
23.100 -0.500 1.100 195 0 59
23.100 -0.500 1.700 203 0 51
23.100 -0.500 1.900 213 0 41
23.100 -0.300 -0.300 192 0 62
23.100 -0.300 1.700 191 0 63
23.100 -0.300 1.900 207 0 47
23.100 -0.100 -0.300 209 0 45
23.100 -0.100 1.700 208 0 46
23.100 -0.100 1.900 202 0 52
23.100 0.100 -0.300 202 0 52
23.100 0.100 1.700 206 0 48
23.100 0.100 1.900 242 0 12
23.100 0.300 -0.300 212 0 42
23.100 0.300 1.700 209 0 45
23.100 0.300 1.900 241 0 13
23.100 0.500 -0.300 205 0 49
23.100 0.500 1.700 210 0 44
23.100 0.500 1.900 255 0 0
23.100 0.700 -0.300 205 0 49
23.100 0.700 1.700 225 0 29
23.100 0.700 1.900 255 0 0
23.100 0.900 -0.300 199 0 55
23.100 0.900 1.700 236 0 18
23.100 0.900 1.900 250 0 4
23.100 1.100 -0.300 192 0 62
23.100 1.100 1.700 234 0 20
23.100 1.100 1.900 244 0 10
23.100 1.300 -0.300 194 0 60
23.100 1.300 1.700 238 0 16
23.100 1.300 1.900 225 0 29
23.100 1.500 -0.300 188 0 66
23.100 1.500 1.700 240 0 14
23.100 1.500 1.900 241 0 13
23.100 1.700 -0.300 180 0 74
23.100 1.700 1.700 243 0 11
23.100 1.700 1.900 236 0 18
23.300 -0.700 -0.300 13 0 241
23.300 -0.500 -0.300 175 0 79
23.300 -0.500 -0.100 158 0 96
23.300 -0.500 0.500 184 0 70
23.300 -0.500 0.700 180 0 74
23.300 -0.500 0.900 202 0 52
23.300 -0.500 1.100 199 0 55
23.300 -0.500 1.700 210 0 44
23.300 -0.500 1.900 213 0 41
23.300 -0.300 -0.300 196 0 58
23.300 -0.300 1.700 218 0 36
23.300 -0.300 1.900 224 0 30
23.300 -0.100 -0.300 200 0 54
23.300 -0.100 1.700 226 0 28
23.300 -0.100 1.900 245 0 9
23.300 0.100 -0.300 204 0 50
23.300 0.100 1.700 238 0 16
23.300 0.100 1.900 250 0 4
23.300 0.300 -0.300 208 0 46
23.300 0.300 1.700 229 0 25
23.300 0.300 1.900 248 0 6
23.300 0.500 -0.300 209 0 45
23.300 0.500 1.700 237 0 17
23.300 0.500 1.900 255 0 0
23.300 0.700 -0.300 200 0 54
23.300 0.700 1.700 227 0 27
23.300 0.700 1.900 243 0 11
23.300 0.900 -0.300 193 0 61
23.300 0.900 1.700 236 0 18
23.300 0.900 1.900 239 0 15
23.300 1.100 -0.300 188 0 66
23.300 1.100 1.700 231 0 23
23.300 1.100 1.900 244 0 10
23.300 1.300 -0.300 186 0 68
23.300 1.300 1.700 243 0 11
23.300 1.300 1.900 247 0 7
23.300 1.500 -0.300 193 0 61
23.300 1.500 1.700 222 0 32
23.300 1.500 1.900 255 0 0
23.300 1.700 -0.300 199 0 55
23.300 1.700 1.700 213 0 41
23.300 1.700 1.900 255 0 0
23.500 -0.700 -0.300 3 0 251
23.500 -0.500 -0.300 180 0 74
23.500 -0.500 -0.100 159 0 95
23.500 -0.500 0.100 162 0 92
23.500 -0.500 0.300 168 0 86
23.500 -0.500 0.500 171 0 83
23.500 -0.500 0.700 184 0 70
23.500 -0.500 0.900 208 0 46
23.500 -0.500 1.100 221 0 33
23.500 -0.500 1.300 238 0 16
23.500 -0.500 1.500 255 0 0
23.500 -0.500 1.700 209 0 45
23.500 -0.500 1.900 202 0 52
23.500 -0.300 -0.300 191 0 63
23.500 -0.300 1.700 214 0 40
23.500 -0.300 1.900 231 0 23
23.500 -0.100 -0.300 199 0 55
23.500 -0.100 1.700 226 0 28
23.500 -0.100 1.900 229 0 25
23.500 0.100 -0.300 205 0 49
23.500 0.100 1.700 246 0 8
23.500 0.100 1.900 249 0 5
23.500 0.300 -0.300 210 0 44
23.500 0.300 1.700 243 0 11
23.500 0.300 1.900 249 0 5
23.500 0.500 -0.300 213 0 41
23.500 0.500 1.700 244 0 10
23.500 0.500 1.900 255 0 0
23.500 0.700 -0.300 207 0 47
23.500 0.700 1.700 252 0 2
23.500 0.700 1.900 255 0 0
23.500 0.900 -0.300 196 0 58
23.500 0.900 1.700 255 0 0
23.500 0.900 1.900 255 0 0
23.500 1.100 -0.300 189 0 65
23.500 1.100 1.700 255 0 0
23.500 1.100 1.900 255 0 0
23.500 1.300 -0.300 203 0 51
23.500 1.300 1.700 252 0 2
23.500 1.300 1.900 255 0 0
23.500 1.500 -0.300 207 0 47
23.500 1.500 1.700 255 0 0
23.500 1.500 1.900 255 0 0
23.500 1.700 -0.300 199 0 55
23.500 1.700 1.700 255 0 0
23.500 1.700 1.900 255 0 0
23.700 -0.500 -0.300 183 0 71
23.700 -0.500 -0.100 169 0 85
23.700 -0.500 0.100 165 0 89
23.700 -0.500 0.300 180 0 74
23.700 -0.500 0.500 197 0 57
23.700 -0.500 0.700 204 0 50
23.700 -0.500 0.900 218 0 36
23.700 -0.500 1.100 228 0 26
23.700 -0.500 1.300 240 0 14
23.700 -0.500 1.500 253 0 1
23.700 -0.500 1.700 205 0 49
23.700 -0.500 1.900 255 0 0
23.700 -0.300 -0.300 192 0 62
23.700 -0.300 1.700 222 0 32
23.700 -0.300 1.900 209 0 45
23.700 -0.100 -0.300 197 0 57
23.700 -0.100 1.700 216 0 38
23.700 -0.100 1.900 198 0 56
23.700 0.100 -0.300 198 0 56
23.700 0.100 1.700 217 0 37
23.700 0.100 1.900 255 0 0
23.700 0.300 -0.300 208 0 46
23.700 0.300 1.700 234 0 20
23.700 0.300 1.900 255 0 0
23.700 0.500 -0.300 210 0 44
23.700 0.500 1.700 233 0 21
23.700 0.500 1.900 243 0 11
23.700 0.700 -0.300 211 0 43
23.700 0.700 1.700 253 0 1
23.700 0.700 1.900 234 0 20
23.700 0.900 -0.300 212 0 42
23.700 0.900 1.700 254 0 0
23.700 0.900 1.900 236 0 18
23.700 1.100 -0.300 210 0 44
23.700 1.100 1.700 239 0 15
23.700 1.100 1.900 251 0 3
23.700 1.300 -0.300 212 0 42
23.700 1.300 1.700 244 0 10
23.700 1.300 1.900 255 0 0
23.700 1.500 -0.300 203 0 51
23.700 1.500 1.700 239 0 15
23.700 1.500 1.900 245 0 9
23.700 1.700 -0.300 199 0 55
23.700 1.700 0.900 207 0 47
23.700 1.700 1.700 236 0 18
23.700 1.700 1.900 242 0 12
23.900 -0.500 -0.300 179 0 75
23.900 -0.500 -0.100 174 0 80
23.900 -0.500 0.100 194 0 60
23.900 -0.500 0.300 198 0 56
23.900 -0.500 0.500 206 0 48
23.900 -0.500 0.700 214 0 40
23.900 -0.500 0.900 223 0 31
23.900 -0.500 1.100 220 0 34
23.900 -0.500 1.300 246 0 8
23.900 -0.500 1.500 255 0 0
23.900 -0.500 1.700 207 0 47
23.900 -0.300 -0.300 184 0 70
23.900 -0.300 -0.100 173 0 81
23.900 -0.300 0.500 211 0 43
23.900 -0.300 0.700 222 0 32
23.900 -0.300 0.900 232 0 22
23.900 -0.300 1.100 147 0 107
23.900 -0.300 1.300 255 0 0
23.900 -0.300 1.700 202 0 52
23.900 -0.300 1.900 233 0 21
23.900 -0.100 -0.300 191 0 63
23.900 -0.100 -0.100 192 0 62
23.900 -0.100 0.500 229 0 25
23.900 -0.100 0.700 237 0 17
23.900 -0.100 0.900 242 0 12
23.900 -0.100 1.100 235 0 19
23.900 -0.100 1.300 251 0 3
23.900 -0.100 1.500 215 0 39
23.900 -0.100 1.700 211 0 43
23.900 -0.100 1.900 255 0 0
23.900 0.100 -0.300 199 0 55
23.900 0.100 -0.100 194 0 60
23.900 0.100 0.100 218 0 36
23.900 0.100 0.300 230 0 24
23.900 0.100 0.500 247 0 7
23.900 0.100 0.700 253 0 1
23.900 0.100 0.900 243 0 11
23.900 0.100 1.100 241 0 13
23.900 0.100 1.300 253 0 1
23.900 0.100 1.500 249 0 5
23.900 0.100 1.700 222 0 32
23.900 0.100 1.900 255 0 0
23.900 0.300 -0.300 206 0 48
23.900 0.300 -0.100 200 0 54
23.900 0.300 0.100 225 0 29
23.900 0.300 0.300 229 0 25
23.900 0.300 0.500 247 0 7
23.900 0.300 0.700 250 0 4
23.900 0.300 0.900 255 0 0
23.900 0.300 1.100 255 0 0
23.900 0.300 1.300 255 0 0
23.900 0.300 1.500 243 0 11
23.900 0.300 1.700 231 0 23
23.900 0.300 1.900 249 0 5
23.900 0.500 -0.300 209 0 45
23.900 0.500 -0.100 207 0 47
23.900 0.500 0.100 224 0 30
23.900 0.500 0.500 226 0 28
23.900 0.500 0.700 240 0 14
23.900 0.500 0.900 255 0 0
23.900 0.500 1.100 255 0 0
23.900 0.500 1.300 238 0 16
23.900 0.500 1.500 255 0 0
23.900 0.500 1.700 229 0 25
23.900 0.500 1.900 255 0 0
23.900 0.700 -0.300 207 0 47
23.900 0.700 -0.100 206 0 48
23.900 0.700 0.100 225 0 29
23.900 0.700 0.300 238 0 16
23.900 0.700 0.500 239 0 15
23.900 0.700 0.700 237 0 17
23.900 0.700 0.900 255 0 0
23.900 0.700 1.100 255 0 0
23.900 0.700 1.300 243 0 11
23.900 0.700 1.500 255 0 0
23.900 0.700 1.700 233 0 21
23.900 0.700 1.900 253 0 1
23.900 0.900 -0.300 205 0 49
23.900 0.900 -0.100 213 0 41
23.900 0.900 0.100 221 0 33
23.900 0.900 0.300 228 0 26
23.900 0.900 0.500 244 0 10
23.900 0.900 0.700 253 0 1
23.900 0.900 0.900 255 0 0
23.900 0.900 1.100 255 0 0
23.900 0.900 1.300 255 0 0
23.900 0.900 1.500 255 0 0
23.900 0.900 1.700 242 0 12
23.900 0.900 1.900 255 0 0
23.900 1.100 -0.300 201 0 53
23.900 1.100 -0.100 210 0 44
23.900 1.100 0.100 229 0 25
23.900 1.100 0.300 231 0 23
23.900 1.100 0.500 237 0 17
23.900 1.100 0.700 238 0 16
23.900 1.100 0.900 255 0 0
23.900 1.100 1.100 255 0 0
23.900 1.100 1.300 254 0 0
23.900 1.100 1.500 252 0 2
23.900 1.100 1.700 241 0 13
23.900 1.100 1.900 255 0 0
23.900 1.300 -0.300 200 0 54
23.900 1.300 -0.100 209 0 45
23.900 1.300 0.100 222 0 32
23.900 1.300 0.300 234 0 20
23.900 1.300 0.500 240 0 14
23.900 1.300 0.700 232 0 22
23.900 1.300 0.900 255 0 0
23.900 1.300 1.100 255 0 0
23.900 1.300 1.300 255 0 0
23.900 1.300 1.500 240 0 14
23.900 1.300 1.700 243 0 11
23.900 1.300 1.900 255 0 0
23.900 1.500 -0.300 198 0 56
23.900 1.500 -0.100 209 0 45
23.900 1.500 0.100 217 0 37
23.900 1.500 0.300 222 0 32
23.900 1.500 0.500 236 0 18
23.900 1.500 0.700 229 0 25
23.900 1.500 0.900 255 0 0
23.900 1.500 1.100 255 0 0
23.900 1.500 1.300 247 0 7
23.900 1.500 1.500 241 0 13
23.900 1.500 1.700 251 0 3
23.900 1.500 1.900 253 0 1
23.900 1.700 -0.300 196 0 58
23.900 1.700 -0.100 202 0 52
23.900 1.700 0.100 203 0 51
23.900 1.700 0.300 210 0 44
23.900 1.700 0.500 225 0 29
23.900 1.700 0.700 234 0 20
23.900 1.700 0.900 240 0 14
23.900 1.700 1.100 249 0 5
23.900 1.700 1.300 252 0 2
23.900 1.700 1.500 240 0 14
23.900 1.700 1.700 246 0 8
23.900 1.700 1.900 255 0 0
24.100 -0.500 -0.300 178 0 76
24.100 -0.500 -0.100 183 0 71
24.100 -0.500 0.100 201 0 53
24.100 -0.500 0.300 206 0 48
24.100 -0.500 0.500 214 0 40
24.100 -0.500 0.700 224 0 30
24.100 -0.500 0.900 226 0 28
24.100 -0.500 1.100 230 0 24
24.100 -0.500 1.300 240 0 14
24.100 -0.500 1.500 242 0 12
24.100 -0.500 1.700 215 0 39
24.100 -0.300 -0.300 184 0 70
24.100 -0.300 -0.100 187 0 67
24.100 -0.300 0.100 199 0 55
24.100 -0.300 0.300 203 0 51
24.100 -0.300 0.500 211 0 43
24.100 -0.300 0.700 216 0 38
24.100 -0.300 0.900 226 0 28
24.100 -0.300 1.100 232 0 22
24.100 -0.300 1.300 237 0 17
24.100 -0.300 1.500 230 0 24
24.100 -0.300 1.700 215 0 39
24.100 -0.300 1.900 224 0 30
24.100 -0.100 -0.300 191 0 63
24.100 -0.100 -0.100 192 0 62
24.100 -0.100 0.100 203 0 51
24.100 -0.100 0.300 208 0 46
24.100 -0.100 0.500 217 0 37
24.100 -0.100 0.700 222 0 32
24.100 -0.100 0.900 233 0 21
24.100 -0.100 1.100 240 0 14
24.100 -0.100 1.300 243 0 11
24.100 -0.100 1.500 241 0 13
24.100 -0.100 1.700 223 0 31
24.100 0.100 -0.300 196 0 58
24.100 0.100 -0.100 198 0 56
24.100 0.100 0.100 209 0 45
24.100 0.100 0.300 213 0 41
24.100 0.100 0.500 224 0 30
24.100 0.100 0.700 231 0 23
24.100 0.100 0.900 242 0 12
24.100 0.100 1.100 247 0 7
24.100 0.100 1.300 251 0 3
24.100 0.100 1.500 247 0 7
24.100 0.100 1.700 235 0 19
24.100 0.300 -0.300 201 0 53
24.100 0.300 -0.100 203 0 51
24.100 0.300 0.100 216 0 38
24.100 0.300 0.300 220 0 34
24.100 0.300 0.500 229 0 25
24.100 0.300 0.700 236 0 18
24.100 0.300 0.900 249 0 5
24.100 0.300 1.100 254 0 0
24.100 0.300 1.300 254 0 0
24.100 0.300 1.500 251 0 3
24.100 0.300 1.700 240 0 14
24.100 0.500 -0.300 201 0 53
24.100 0.500 -0.100 205 0 49
24.100 0.500 0.100 217 0 37
24.100 0.500 0.300 222 0 32
24.100 0.500 0.500 233 0 21
24.100 0.500 0.700 240 0 14
24.100 0.500 0.900 249 0 5
24.100 0.500 1.100 255 0 0
24.100 0.500 1.300 255 0 0
24.100 0.500 1.500 254 0 0
24.100 0.500 1.700 241 0 13
24.100 0.700 -0.300 201 0 53
24.100 0.700 -0.100 205 0 49
24.100 0.700 0.100 216 0 38
24.100 0.700 0.300 221 0 33
24.100 0.700 0.500 231 0 23
24.100 0.700 0.700 244 0 10
24.100 0.700 0.900 250 0 4
24.100 0.700 1.100 255 0 0
24.100 0.700 1.300 255 0 0
24.100 0.700 1.500 253 0 1
24.100 0.700 1.700 240 0 14
24.100 0.900 -0.300 200 0 54
24.100 0.900 -0.100 203 0 51
24.100 0.900 0.100 215 0 39
24.100 0.900 0.300 219 0 35
24.100 0.900 0.500 231 0 23
24.100 0.900 0.700 235 0 19
24.100 0.900 0.900 252 0 2
24.100 0.900 1.100 255 0 0
24.100 0.900 1.300 255 0 0
24.100 0.900 1.500 254 0 0
24.100 0.900 1.700 251 0 3
24.100 1.100 -0.300 197 0 57
24.100 1.100 -0.100 205 0 49
24.100 1.100 0.100 215 0 39
24.100 1.100 0.300 216 0 38
24.100 1.100 0.500 230 0 24
24.100 1.100 0.700 237 0 17
24.100 1.100 0.900 247 0 7
24.100 1.100 1.100 255 0 0
24.100 1.100 1.300 255 0 0
24.100 1.100 1.500 251 0 3
24.100 1.100 1.700 245 0 9
24.100 1.300 -0.300 193 0 61
24.100 1.300 -0.100 202 0 52
24.100 1.300 0.100 213 0 41
24.100 1.300 0.300 215 0 39
24.100 1.300 0.500 226 0 28
24.100 1.300 0.700 235 0 19
24.100 1.300 0.900 246 0 8
24.100 1.300 1.100 254 0 0
24.100 1.300 1.300 253 0 1
24.100 1.300 1.500 250 0 4
24.100 1.300 1.700 244 0 10
24.100 1.300 1.900 255 0 0
24.100 1.500 -0.300 189 0 65
24.100 1.500 -0.100 199 0 55
24.100 1.500 0.100 210 0 44
24.100 1.500 0.300 211 0 43
24.100 1.500 0.500 226 0 28
24.100 1.500 0.700 234 0 20
24.100 1.500 0.900 242 0 12
24.100 1.500 1.100 251 0 3
24.100 1.500 1.300 251 0 3
24.100 1.500 1.500 248 0 6
24.100 1.500 1.700 244 0 10
24.100 1.500 1.900 255 0 0
24.100 1.700 -0.300 179 0 75
24.100 1.700 -0.100 199 0 55
24.100 1.700 0.100 203 0 51
24.100 1.700 0.300 205 0 49
24.100 1.700 0.500 224 0 30
24.100 1.700 0.700 227 0 27
24.100 1.700 0.900 244 0 10
24.100 1.700 1.100 248 0 6
24.100 1.700 1.300 247 0 7
24.100 1.700 1.500 248 0 6
24.100 1.700 1.700 245 0 9
24.100 1.700 1.900 255 0 0
24.300 -0.500 0.700 223 0 31
24.300 -0.500 0.900 218 0 36
24.300 -0.500 1.100 247 0 7
24.300 -0.500 1.300 250 0 4
24.300 -0.500 1.500 171 0 83
24.300 -0.500 1.700 255 0 0
24.300 -0.300 0.700 245 0 9
24.300 -0.300 0.900 143 0 111
24.300 -0.300 1.100 247 0 7
24.300 -0.300 1.300 203 0 51
24.300 -0.300 1.500 240 0 14
24.300 -0.300 1.700 236 0 18
24.300 -0.100 0.700 255 0 0
24.300 -0.100 0.900 225 0 29
24.300 -0.100 1.100 192 0 62
24.300 -0.100 1.500 255 0 0
24.300 -0.100 1.700 247 0 7
24.300 0.100 1.100 207 0 47
24.300 0.100 1.300 255 0 0
24.300 0.100 1.500 255 0 0
24.300 0.100 1.700 255 0 0
24.300 0.300 1.300 219 0 35
24.300 0.300 1.700 255 0 0
24.300 0.500 1.100 255 0 0
24.300 0.500 1.300 255 0 0
24.300 0.500 1.500 209 0 45
24.300 0.500 1.700 255 0 0
24.300 0.700 1.100 255 0 0
24.300 0.700 1.300 255 0 0
24.300 0.700 1.700 255 0 0
24.300 0.900 1.700 255 0 0
24.300 1.100 0.700 255 0 0
24.300 1.100 0.900 255 0 0
24.300 1.100 1.100 255 0 0
24.300 1.100 1.300 255 0 0
24.300 1.100 1.700 255 0 0
24.300 1.300 0.900 255 0 0
24.300 1.300 1.100 255 0 0
24.300 1.300 1.300 255 0 0
24.300 1.300 1.700 255 0 0
24.300 1.500 1.700 255 0 0
24.300 1.700 1.100 225 0 29
24.300 1.700 1.500 255 0 0
24.300 1.700 1.700 255 0 0
24.500 -0.500 0.700 240 0 14
24.500 -0.500 0.900 235 0 19
24.500 -0.500 1.100 229 0 25
24.500 -0.500 1.300 251 0 3
24.500 -0.500 1.500 255 0 0
24.500 -0.500 1.700 255 0 0
24.500 -0.300 1.500 255 0 0
24.500 -0.300 1.700 246 0 8
24.500 -0.100 1.700 255 0 0
24.500 0.100 1.700 255 0 0
24.500 0.300 1.700 255 0 0
24.500 0.500 0.700 255 0 0
24.500 0.500 1.300 255 0 0
24.500 0.500 1.700 255 0 0
24.500 0.900 1.700 255 0 0
24.500 1.100 1.100 255 0 0
24.500 1.100 1.700 233 0 21
24.500 1.300 1.100 255 0 0
24.500 1.300 1.300 255 0 0
24.500 1.300 1.700 255 0 0
24.500 1.500 1.700 255 0 0
24.500 1.700 1.700 255 0 0
24.700 -0.500 0.700 223 0 31
24.700 -0.500 0.900 183 0 71
24.700 -0.500 1.100 232 0 22
24.700 -0.500 1.500 241 0 13
24.700 -0.500 1.700 245 0 9
24.700 -0.300 1.700 255 0 0
24.700 -0.100 1.700 255 0 0
24.700 0.100 1.700 255 0 0
24.700 0.300 1.700 255 0 0
24.700 1.300 1.700 225 0 29
24.700 1.700 1.700 252 0 2
24.900 -0.500 0.700 253 0 1
24.900 -0.500 0.900 231 0 23
24.900 -0.500 1.100 226 0 28
24.900 -0.500 1.300 229 0 25
24.900 -0.500 1.500 251 0 3
24.900 -0.500 1.700 239 0 15
24.900 -0.300 1.500 255 0 0
24.900 -0.300 1.700 255 0 0
24.900 -0.300 1.900 239 0 15
24.900 -0.100 1.700 255 0 0
24.900 0.100 1.700 248 0 6
24.900 1.300 1.700 255 0 0
24.900 1.500 1.700 255 0 0
25.100 -0.500 0.700 247 0 7
25.100 -0.500 0.900 231 0 23
25.100 -0.500 1.100 247 0 7
25.100 -0.500 1.300 231 0 23
25.100 -0.500 1.500 241 0 13
25.100 -0.500 1.700 255 0 0
25.100 -0.300 1.700 255 0 0
25.100 -0.100 1.700 255 0 0
25.100 0.100 1.700 255 0 0
25.100 1.500 1.700 244 0 10
25.100 1.700 1.900 0 0 255
25.300 -0.500 0.900 217 0 37
25.300 -0.500 1.100 244 0 10
25.300 -0.500 1.300 227 0 27
25.300 -0.500 1.500 255 0 0
25.300 -0.500 1.700 255 0 0
25.300 -0.300 1.700 231 0 23
25.300 -0.300 1.900 233 0 21
25.300 -0.100 1.700 236 0 18
25.300 -0.100 1.900 229 0 25
25.300 1.700 1.700 255 0 0
25.500 -0.500 1.700 255 0 0
25.500 -0.300 1.700 255 0 0
25.500 -0.100 1.700 255 0 0
25.700 -0.500 0.900 223 0 31
25.700 -0.500 1.700 255 0 0
25.700 -0.300 0.900 234 0 20
25.700 -0.300 1.100 233 0 21
25.700 -0.300 1.300 250 0 4
26.100 -0.300 0.900 220 0 34
26.100 -0.300 1.100 229 0 25
26.100 -0.300 1.300 255 0 0
26.100 0.500 1.900 255 0 0
26.100 0.700 1.500 255 0 0
26.100 0.700 1.700 238 0 16
26.100 0.700 1.900 255 0 0
26.100 0.900 1.700 163 0 91
26.100 0.900 1.900 255 0 0
26.100 1.100 1.900 255 0 0
26.100 1.300 1.500 233 0 21
26.100 1.300 1.700 186 0 68
26.100 1.300 1.900 255 0 0
26.100 1.500 1.900 254 0 0
26.500 0.300 1.900 255 0 0
26.900 -0.300 1.700 170 0 84
27.500 -0.300 1.700 205 0 49
27.700 -0.300 1.100 255 0 0
27.700 -0.300 1.300 255 0 0
27.700 -0.300 1.500 255 0 0
27.700 -0.300 1.700 252 0 2
27.900 -0.300 1.300 234 0 20
28.100 -0.300 1.100 255 0 0
28.100 -0.300 1.300 251 0 3
28.100 -0.300 1.500 255 0 0
28.100 -0.300 1.700 255 0 0
28.100 -0.100 1.700 255 0 0
29.700 -0.700 1.500 196 0 58
29.700 -0.500 1.700 204 0 50
29.900 -0.700 1.700 44 0 210
29.900 -0.500 1.300 251 0 3
29.900 -0.300 1.500 255 0 0
29.900 -0.300 1.700 200 0 54
29.900 -0.300 1.900 212 0 42
29.900 -0.100 1.100 211 0 43
29.900 -0.100 1.300 198 0 56
29.900 -0.100 1.500 187 0 67
29.900 -0.100 1.700 175 0 79
29.900 -0.100 1.900 233 0 21
29.900 0.100 1.300 195 0 59
29.900 0.100 1.500 209 0 45
29.900 0.100 1.900 193 0 61
29.900 0.300 1.700 225 0 29
